<svg width="370" height="48" viewBox="0 0 370 48" fill="none" xmlns="http://www.w3.org/2000/svg">
<rect x="0.5" y="0.5" width="369" height="47" fill="white" stroke="#0F7173"/>
<path d="M17.818 28.696H19.834L23.722 36.508H23.578L27.466 28.696H29.428V40H28.006V30.154H28.258L24.118 38.578H23.182L19.06 30.208H19.222V40H17.818V28.696ZM33.8502 29.362C33.5622 29.362 33.3342 29.281 33.1662 29.119C32.9982 28.951 32.9142 28.732 32.9142 28.462C32.9142 28.198 32.9982 27.988 33.1662 27.832C33.3342 27.676 33.5622 27.598 33.8502 27.598C34.1382 27.598 34.3662 27.676 34.5342 27.832C34.7022 27.988 34.7862 28.198 34.7862 28.462C34.7862 28.732 34.7022 28.951 34.5342 29.119C34.3662 29.281 34.1382 29.362 33.8502 29.362ZM33.1482 40V31.378H34.5522V40H33.1482ZM41.4436 40.216C40.7536 40.216 40.1086 40.03 39.5086 39.658C38.9146 39.286 38.4346 38.761 38.0686 38.083C37.7026 37.405 37.5196 36.604 37.5196 35.68C37.5196 34.732 37.7026 33.922 38.0686 33.25C38.4346 32.578 38.9146 32.065 39.5086 31.711C40.1086 31.357 40.7536 31.18 41.4436 31.18C41.9296 31.18 42.3646 31.255 42.7486 31.405C43.1386 31.549 43.4776 31.75 43.7656 32.008C44.0536 32.266 44.2906 32.56 44.4766 32.89C44.6686 33.214 44.8096 33.556 44.8996 33.916L43.4596 34.042C43.3096 33.544 43.0576 33.151 42.7036 32.863C42.3556 32.569 41.9296 32.422 41.4256 32.422C40.9996 32.422 40.5976 32.545 40.2196 32.791C39.8476 33.031 39.5446 33.394 39.3106 33.88C39.0766 34.36 38.9596 34.96 38.9596 35.68C38.9596 36.346 39.0646 36.925 39.2746 37.417C39.4906 37.903 39.7846 38.281 40.1566 38.551C40.5286 38.821 40.9516 38.956 41.4256 38.956C42.0916 38.956 42.5956 38.794 42.9376 38.47C43.2856 38.14 43.4596 37.684 43.4596 37.102H44.8996C44.8996 37.702 44.7586 38.236 44.4766 38.704C44.1946 39.172 43.7926 39.541 43.2706 39.811C42.7546 40.081 42.1456 40.216 41.4436 40.216ZM53.8208 40V34.942C53.8208 34.12 53.6228 33.496 53.2268 33.07C52.8368 32.638 52.3028 32.422 51.6248 32.422C51.1088 32.422 50.6618 32.563 50.2838 32.845C49.9058 33.127 49.6148 33.532 49.4108 34.06C49.2068 34.582 49.1048 35.206 49.1048 35.932H48.5648C48.5648 34.93 48.6968 34.075 48.9608 33.367C49.2248 32.659 49.6088 32.119 50.1128 31.747C50.6228 31.369 51.2408 31.18 51.9668 31.18C52.6448 31.18 53.2238 31.333 53.7038 31.639C54.1898 31.939 54.5618 32.371 54.8198 32.935C55.0778 33.499 55.2068 34.168 55.2068 34.942V40H53.8208ZM47.7008 40V27.724H49.1048V40H47.7008ZM61.5521 40.216C60.8081 40.216 60.1421 40.027 59.5541 39.649C58.9721 39.265 58.5101 38.734 58.1681 38.056C57.8321 37.378 57.6641 36.598 57.6641 35.716C57.6641 34.774 57.8321 33.964 58.1681 33.286C58.5041 32.608 58.9631 32.089 59.5451 31.729C60.1331 31.363 60.8021 31.18 61.5521 31.18C62.2061 31.18 62.7641 31.312 63.2261 31.576C63.6881 31.84 64.0601 32.197 64.3421 32.647C64.6241 33.097 64.8191 33.607 64.9271 34.177C65.0411 34.741 65.0741 35.326 65.0261 35.932H58.7981V35.068H64.0991L63.6851 35.338C63.7031 34.984 63.6821 34.63 63.6221 34.276C63.5681 33.922 63.4631 33.598 63.3071 33.304C63.1511 33.004 62.9321 32.764 62.6501 32.584C62.3681 32.404 62.0081 32.314 61.5701 32.314C61.0181 32.314 60.5561 32.455 60.1841 32.737C59.8121 33.019 59.5331 33.391 59.3471 33.853C59.1611 34.309 59.0681 34.804 59.0681 35.338V35.914C59.0681 36.514 59.1581 37.051 59.3381 37.525C59.5241 37.999 59.8001 38.374 60.1661 38.65C60.5321 38.926 60.9941 39.064 61.5521 39.064C62.1101 39.064 62.5691 38.929 62.9291 38.659C63.2891 38.389 63.5081 37.99 63.5861 37.462H65.0441C64.9541 38.032 64.7501 38.524 64.4321 38.938C64.1141 39.346 63.7091 39.661 63.2171 39.883C62.7251 40.105 62.1701 40.216 61.5521 40.216ZM67.8102 40V27.724H69.2142V40H67.8102ZM72.8551 40V27.724H74.2591V40H72.8551ZM80.888 40.216C80.144 40.216 79.478 40.027 78.89 39.649C78.308 39.265 77.846 38.734 77.504 38.056C77.168 37.378 77 36.598 77 35.716C77 34.774 77.168 33.964 77.504 33.286C77.84 32.608 78.299 32.089 78.881 31.729C79.469 31.363 80.138 31.18 80.888 31.18C81.542 31.18 82.1 31.312 82.562 31.576C83.024 31.84 83.396 32.197 83.678 32.647C83.96 33.097 84.155 33.607 84.263 34.177C84.377 34.741 84.41 35.326 84.362 35.932H78.134V35.068H83.435L83.021 35.338C83.039 34.984 83.018 34.63 82.958 34.276C82.904 33.922 82.799 33.598 82.643 33.304C82.487 33.004 82.268 32.764 81.986 32.584C81.704 32.404 81.344 32.314 80.906 32.314C80.354 32.314 79.892 32.455 79.52 32.737C79.148 33.019 78.869 33.391 78.683 33.853C78.497 34.309 78.404 34.804 78.404 35.338V35.914C78.404 36.514 78.494 37.051 78.674 37.525C78.86 37.999 79.136 38.374 79.502 38.65C79.868 38.926 80.33 39.064 80.888 39.064C81.446 39.064 81.905 38.929 82.265 38.659C82.625 38.389 82.844 37.99 82.922 37.462H84.38C84.29 38.032 84.086 38.524 83.768 38.938C83.45 39.346 83.045 39.661 82.553 39.883C82.061 40.105 81.506 40.216 80.888 40.216ZM90.7641 40.216C90.0081 40.216 89.3151 40.081 88.6851 39.811C88.0551 39.535 87.5481 39.13 87.1641 38.596C86.7801 38.062 86.5821 37.402 86.5701 36.616H87.9381C87.9381 37.144 88.0671 37.579 88.3251 37.921C88.5831 38.257 88.9251 38.509 89.3511 38.677C89.7771 38.839 90.2421 38.92 90.7461 38.92C91.2921 38.92 91.7661 38.833 92.1681 38.659C92.5701 38.485 92.8791 38.257 93.0951 37.975C93.3171 37.687 93.4281 37.372 93.4281 37.03C93.4281 36.55 93.2811 36.163 92.9871 35.869C92.6931 35.569 92.2581 35.326 91.6821 35.14L89.6841 34.438C88.7481 34.102 88.0401 33.718 87.5601 33.286C87.0801 32.854 86.8401 32.248 86.8401 31.468C86.8401 30.592 87.1761 29.878 87.8481 29.326C88.5261 28.774 89.4861 28.498 90.7281 28.498C91.8801 28.498 92.7801 28.765 93.4281 29.299C94.0761 29.827 94.4481 30.538 94.5441 31.432H93.1581C93.0681 30.91 92.8221 30.505 92.4201 30.217C92.0241 29.923 91.4601 29.776 90.7281 29.776C89.9841 29.776 89.4051 29.941 88.9911 30.271C88.5771 30.601 88.3701 31.018 88.3701 31.522C88.3701 31.936 88.4991 32.266 88.7571 32.512C89.0211 32.752 89.4321 32.968 89.9901 33.16L92.3301 33.97C93.1401 34.24 93.7791 34.618 94.2471 35.104C94.7211 35.59 94.9581 36.22 94.9581 36.994C94.9581 37.594 94.7961 38.137 94.4721 38.623C94.1541 39.109 93.6831 39.496 93.0591 39.784C92.4351 40.072 91.6701 40.216 90.7641 40.216ZM110.123 40V34.942C110.123 34.12 109.925 33.496 109.529 33.07C109.139 32.638 108.611 32.422 107.945 32.422C107.165 32.422 106.568 32.725 106.154 33.331C105.74 33.931 105.533 34.762 105.533 35.824H104.885C104.885 35.05 104.96 34.372 105.11 33.79C105.266 33.208 105.491 32.725 105.785 32.341C106.079 31.951 106.436 31.66 106.856 31.468C107.276 31.276 107.753 31.18 108.287 31.18C108.965 31.18 109.544 31.333 110.024 31.639C110.51 31.939 110.882 32.371 111.14 32.935C111.398 33.499 111.527 34.168 111.527 34.942V40H110.123ZM98.027 40V31.396H99.233L99.395 33.124C99.665 32.5 100.043 32.02 100.529 31.684C101.021 31.348 101.609 31.18 102.293 31.18C102.971 31.18 103.55 31.333 104.03 31.639C104.516 31.939 104.888 32.371 105.146 32.935C105.404 33.499 105.533 34.168 105.533 34.942V40H104.147V34.942C104.147 34.12 103.949 33.496 103.553 33.07C103.163 32.638 102.629 32.422 101.951 32.422C101.435 32.422 100.988 32.563 100.61 32.845C100.232 33.127 99.941 33.532 99.737 34.06C99.533 34.582 99.431 35.206 99.431 35.932V40H98.027ZM115.659 29.362C115.371 29.362 115.143 29.281 114.975 29.119C114.807 28.951 114.723 28.732 114.723 28.462C114.723 28.198 114.807 27.988 114.975 27.832C115.143 27.676 115.371 27.598 115.659 27.598C115.947 27.598 116.175 27.676 116.343 27.832C116.511 27.988 116.595 28.198 116.595 28.462C116.595 28.732 116.511 28.951 116.343 29.119C116.175 29.281 115.947 29.362 115.659 29.362ZM114.957 40V31.378H116.361V40H114.957ZM122.874 40.216C122.406 40.216 121.986 40.126 121.614 39.946C121.242 39.766 120.948 39.496 120.732 39.136C120.516 38.776 120.408 38.326 120.408 37.786V29.002H121.794V37.75C121.794 38.638 122.208 39.082 123.036 39.082C123.282 39.082 123.519 39.055 123.747 39.001C123.981 38.947 124.242 38.866 124.53 38.758L124.728 39.766C124.422 39.898 124.116 40.006 123.81 40.09C123.51 40.174 123.198 40.216 122.874 40.216ZM119.022 32.368V31.396H124.512V32.368H119.022ZM133.116 40V34.942C133.116 34.12 132.918 33.496 132.522 33.07C132.132 32.638 131.598 32.422 130.92 32.422C130.404 32.422 129.957 32.563 129.579 32.845C129.201 33.127 128.91 33.532 128.706 34.06C128.502 34.582 128.4 35.206 128.4 35.932H127.86C127.86 34.93 127.992 34.075 128.256 33.367C128.52 32.659 128.904 32.119 129.408 31.747C129.918 31.369 130.536 31.18 131.262 31.18C131.94 31.18 132.519 31.333 132.999 31.639C133.485 31.939 133.857 32.371 134.115 32.935C134.373 33.499 134.502 34.168 134.502 34.942V40H133.116ZM126.996 40V27.724H128.4V40H126.996ZM145.833 43.24C144.537 43.24 143.361 43.06 142.305 42.7C141.255 42.34 140.352 41.83 139.596 41.17C138.84 40.516 138.258 39.742 137.85 38.848C137.448 37.954 137.247 36.973 137.247 35.905C137.247 34.849 137.442 33.871 137.832 32.971C138.228 32.071 138.78 31.288 139.488 30.622C140.196 29.95 141.03 29.428 141.99 29.056C142.956 28.684 144.009 28.498 145.149 28.498C146.211 28.498 147.168 28.657 148.02 28.975C148.872 29.293 149.601 29.737 150.207 30.307C150.819 30.877 151.287 31.54 151.611 32.296C151.935 33.046 152.097 33.853 152.097 34.717C152.097 35.443 151.989 36.1 151.773 36.688C151.557 37.27 151.263 37.771 150.891 38.191C150.525 38.611 150.111 38.935 149.649 39.163C149.187 39.385 148.71 39.496 148.218 39.496C147.726 39.496 147.321 39.385 147.003 39.163C146.685 38.935 146.499 38.62 146.445 38.218L146.391 37.948C146.187 38.368 145.905 38.731 145.545 39.037C145.185 39.343 144.711 39.496 144.123 39.496C143.613 39.496 143.136 39.367 142.692 39.109C142.254 38.851 141.9 38.485 141.63 38.011C141.36 37.537 141.225 36.973 141.225 36.319C141.225 35.743 141.333 35.206 141.549 34.708C141.765 34.204 142.059 33.763 142.431 33.385C142.809 33.001 143.235 32.704 143.709 32.494C144.189 32.278 144.693 32.17 145.221 32.17C145.941 32.17 146.511 32.386 146.931 32.818C147.351 33.25 147.561 33.904 147.561 34.78V37.516C147.561 37.84 147.615 38.077 147.723 38.227C147.837 38.377 148.014 38.452 148.254 38.452C148.596 38.452 148.953 38.305 149.325 38.011C149.697 37.717 150.012 37.291 150.27 36.733C150.528 36.175 150.657 35.503 150.657 34.717C150.657 33.751 150.438 32.896 150 32.152C149.562 31.402 148.935 30.814 148.119 30.388C147.309 29.956 146.34 29.74 145.212 29.74C144.228 29.74 143.334 29.905 142.53 30.235C141.732 30.565 141.045 31.021 140.469 31.603C139.899 32.185 139.458 32.86 139.146 33.628C138.84 34.39 138.687 35.209 138.687 36.085C138.687 37.273 138.972 38.32 139.542 39.226C140.118 40.126 140.94 40.831 142.008 41.341C143.076 41.851 144.351 42.106 145.833 42.106V43.24ZM144.321 38.362C144.795 38.362 145.188 38.218 145.5 37.93C145.818 37.636 146.109 37.228 146.373 36.706V34.78C146.373 34.288 146.286 33.913 146.112 33.655C145.938 33.397 145.647 33.268 145.239 33.268C144.837 33.268 144.429 33.394 144.015 33.646C143.601 33.892 143.253 34.246 142.971 34.708C142.695 35.164 142.557 35.704 142.557 36.328C142.557 36.988 142.722 37.492 143.052 37.84C143.388 38.188 143.811 38.362 144.321 38.362ZM157.794 44.428C156.912 44.428 156.147 44.302 155.499 44.05C154.851 43.804 154.347 43.471 153.987 43.051C153.633 42.637 153.456 42.178 153.456 41.674C153.456 41.008 153.699 40.498 154.185 40.144C154.677 39.796 155.31 39.622 156.084 39.622L156.858 40.108C156.21 40.108 155.709 40.243 155.355 40.513C155.001 40.783 154.824 41.152 154.824 41.62C154.824 42.088 155.076 42.484 155.58 42.808C156.084 43.132 156.822 43.294 157.794 43.294C158.514 43.294 159.144 43.189 159.684 42.979C160.23 42.775 160.653 42.505 160.953 42.169C161.259 41.839 161.412 41.482 161.412 41.098C161.412 40.828 161.313 40.594 161.115 40.396C160.917 40.204 160.614 40.108 160.206 40.108H156.858C156.276 40.108 155.772 40.021 155.346 39.847C154.926 39.667 154.602 39.433 154.374 39.145C154.146 38.857 154.032 38.542 154.032 38.2C154.032 37.84 154.134 37.534 154.338 37.282C154.542 37.03 154.806 36.838 155.13 36.706C155.46 36.574 155.814 36.508 156.192 36.508L156.462 37.03C156.282 37.03 156.099 37.072 155.913 37.156C155.733 37.234 155.58 37.354 155.454 37.516C155.334 37.672 155.274 37.87 155.274 38.11C155.274 38.386 155.388 38.617 155.616 38.803C155.844 38.989 156.258 39.082 156.858 39.082H160.206C161.016 39.082 161.652 39.253 162.114 39.595C162.582 39.937 162.816 40.414 162.816 41.026C162.816 41.59 162.615 42.13 162.213 42.646C161.811 43.168 161.235 43.594 160.485 43.924C159.735 44.26 158.838 44.428 157.794 44.428ZM158.046 37.48C157.386 37.48 156.789 37.348 156.255 37.084C155.727 36.82 155.307 36.451 154.995 35.977C154.689 35.503 154.536 34.954 154.536 34.33C154.536 33.7 154.689 33.148 154.995 32.674C155.307 32.2 155.727 31.834 156.255 31.576C156.789 31.312 157.386 31.18 158.046 31.18C158.688 31.18 159.27 31.312 159.792 31.576C160.32 31.834 160.74 32.2 161.052 32.674C161.364 33.148 161.52 33.7 161.52 34.33C161.52 34.954 161.364 35.503 161.052 35.977C160.74 36.451 160.32 36.82 159.792 37.084C159.27 37.348 158.688 37.48 158.046 37.48ZM158.046 36.472C158.706 36.472 159.219 36.268 159.585 35.86C159.951 35.452 160.134 34.942 160.134 34.33C160.134 33.7 159.951 33.19 159.585 32.8C159.219 32.404 158.706 32.206 158.046 32.206C157.392 32.206 156.876 32.404 156.498 32.8C156.126 33.19 155.94 33.7 155.94 34.33C155.94 34.942 156.126 35.452 156.498 35.86C156.876 36.268 157.392 36.472 158.046 36.472ZM160.872 32.548L160.206 32.278C160.206 31.774 160.305 31.333 160.503 30.955C160.701 30.571 160.983 30.274 161.349 30.064C161.715 29.848 162.15 29.74 162.654 29.74L162.546 31.126C162.006 31.126 161.592 31.243 161.304 31.477C161.016 31.705 160.872 32.062 160.872 32.548ZM177.008 40V34.942C177.008 34.12 176.81 33.496 176.414 33.07C176.024 32.638 175.496 32.422 174.83 32.422C174.05 32.422 173.453 32.725 173.039 33.331C172.625 33.931 172.418 34.762 172.418 35.824H171.77C171.77 35.05 171.845 34.372 171.995 33.79C172.151 33.208 172.376 32.725 172.67 32.341C172.964 31.951 173.321 31.66 173.741 31.468C174.161 31.276 174.638 31.18 175.172 31.18C175.85 31.18 176.429 31.333 176.909 31.639C177.395 31.939 177.767 32.371 178.025 32.935C178.283 33.499 178.412 34.168 178.412 34.942V40H177.008ZM164.912 40V31.396H166.118L166.28 33.124C166.55 32.5 166.928 32.02 167.414 31.684C167.906 31.348 168.494 31.18 169.178 31.18C169.856 31.18 170.435 31.333 170.915 31.639C171.401 31.939 171.773 32.371 172.031 32.935C172.289 33.499 172.418 34.168 172.418 34.942V40H171.032V34.942C171.032 34.12 170.834 33.496 170.438 33.07C170.048 32.638 169.514 32.422 168.836 32.422C168.32 32.422 167.873 32.563 167.495 32.845C167.117 33.127 166.826 33.532 166.622 34.06C166.418 34.582 166.316 35.206 166.316 35.932V40H164.912ZM187.08 40L186.9 38.11V34.42C186.9 33.646 186.735 33.091 186.405 32.755C186.075 32.413 185.58 32.242 184.92 32.242C184.548 32.242 184.209 32.296 183.903 32.404C183.603 32.512 183.363 32.68 183.183 32.908C183.009 33.13 182.922 33.418 182.922 33.772H181.356C181.356 33.148 181.509 32.647 181.815 32.269C182.121 31.885 182.541 31.609 183.075 31.441C183.615 31.267 184.23 31.18 184.92 31.18C185.58 31.18 186.165 31.291 186.675 31.513C187.185 31.735 187.584 32.089 187.872 32.575C188.16 33.055 188.304 33.682 188.304 34.456V40H187.08ZM184.146 40.216C183.438 40.216 182.853 40.09 182.391 39.838C181.929 39.586 181.584 39.259 181.356 38.857C181.128 38.455 181.014 38.032 181.014 37.588C181.014 37.006 181.158 36.532 181.446 36.166C181.74 35.8 182.139 35.533 182.643 35.365C183.147 35.191 183.714 35.104 184.344 35.104C184.794 35.104 185.244 35.149 185.694 35.239C186.15 35.329 186.594 35.452 187.026 35.608V36.49C186.666 36.346 186.258 36.232 185.802 36.148C185.352 36.064 184.938 36.022 184.56 36.022C183.984 36.022 183.498 36.142 183.102 36.382C182.706 36.616 182.508 37.018 182.508 37.588C182.508 38.008 182.658 38.368 182.958 38.668C183.264 38.968 183.75 39.118 184.416 39.118C184.884 39.118 185.304 39.01 185.676 38.794C186.054 38.572 186.351 38.296 186.567 37.966C186.789 37.636 186.9 37.306 186.9 36.976H187.242C187.242 37.552 187.116 38.086 186.864 38.578C186.618 39.07 186.264 39.466 185.802 39.766C185.34 40.066 184.788 40.216 184.146 40.216ZM192.458 29.362C192.17 29.362 191.942 29.281 191.774 29.119C191.606 28.951 191.522 28.732 191.522 28.462C191.522 28.198 191.606 27.988 191.774 27.832C191.942 27.676 192.17 27.598 192.458 27.598C192.746 27.598 192.974 27.676 193.142 27.832C193.31 27.988 193.394 28.198 193.394 28.462C193.394 28.732 193.31 28.951 193.142 29.119C192.974 29.281 192.746 29.362 192.458 29.362ZM191.756 40V31.378H193.16V40H191.756ZM197.027 40V27.724H198.431V40H197.027ZM200.794 39.163C200.794 38.881 200.893 38.638 201.091 38.434C201.289 38.23 201.538 38.128 201.838 38.128C202.138 38.128 202.393 38.23 202.603 38.434C202.813 38.638 202.918 38.881 202.918 39.163C202.918 39.445 202.813 39.682 202.603 39.874C202.393 40.066 202.138 40.162 201.838 40.162C201.538 40.162 201.289 40.066 201.091 39.874C200.893 39.676 200.794 39.439 200.794 39.163ZM208.313 40.216C207.623 40.216 206.978 40.03 206.378 39.658C205.784 39.286 205.304 38.761 204.938 38.083C204.572 37.405 204.389 36.604 204.389 35.68C204.389 34.732 204.572 33.922 204.938 33.25C205.304 32.578 205.784 32.065 206.378 31.711C206.978 31.357 207.623 31.18 208.313 31.18C208.799 31.18 209.234 31.255 209.618 31.405C210.008 31.549 210.347 31.75 210.635 32.008C210.923 32.266 211.16 32.56 211.346 32.89C211.538 33.214 211.679 33.556 211.769 33.916L210.329 34.042C210.179 33.544 209.927 33.151 209.573 32.863C209.225 32.569 208.799 32.422 208.295 32.422C207.869 32.422 207.467 32.545 207.089 32.791C206.717 33.031 206.414 33.394 206.18 33.88C205.946 34.36 205.829 34.96 205.829 35.68C205.829 36.346 205.934 36.925 206.144 37.417C206.36 37.903 206.654 38.281 207.026 38.551C207.398 38.821 207.821 38.956 208.295 38.956C208.961 38.956 209.465 38.794 209.807 38.47C210.155 38.14 210.329 37.684 210.329 37.102H211.769C211.769 37.702 211.628 38.236 211.346 38.704C211.064 39.172 210.662 39.541 210.14 39.811C209.624 40.081 209.015 40.216 208.313 40.216ZM217.684 40.216C216.91 40.216 216.22 40.045 215.614 39.703C215.014 39.361 214.54 38.854 214.192 38.182C213.844 37.51 213.67 36.682 213.67 35.698C213.67 34.708 213.844 33.88 214.192 33.214C214.54 32.542 215.014 32.035 215.614 31.693C216.22 31.351 216.91 31.18 217.684 31.18C218.452 31.18 219.136 31.351 219.736 31.693C220.342 32.035 220.816 32.542 221.158 33.214C221.506 33.88 221.68 34.708 221.68 35.698C221.68 36.682 221.506 37.51 221.158 38.182C220.816 38.854 220.342 39.361 219.736 39.703C219.136 40.045 218.452 40.216 217.684 40.216ZM217.648 38.992C218.206 38.992 218.68 38.86 219.07 38.596C219.46 38.326 219.754 37.945 219.952 37.453C220.156 36.961 220.258 36.376 220.258 35.698C220.258 34.672 220.045 33.865 219.619 33.277C219.193 32.683 218.56 32.386 217.72 32.386C217.156 32.386 216.679 32.521 216.289 32.791C215.905 33.055 215.611 33.436 215.407 33.934C215.209 34.426 215.11 35.014 215.11 35.698C215.11 36.712 215.323 37.516 215.749 38.11C216.181 38.698 216.814 38.992 217.648 38.992ZM236.51 40V34.942C236.51 34.12 236.312 33.496 235.916 33.07C235.526 32.638 234.998 32.422 234.332 32.422C233.552 32.422 232.955 32.725 232.541 33.331C232.127 33.931 231.92 34.762 231.92 35.824H231.272C231.272 35.05 231.347 34.372 231.497 33.79C231.653 33.208 231.878 32.725 232.172 32.341C232.466 31.951 232.823 31.66 233.243 31.468C233.663 31.276 234.14 31.18 234.674 31.18C235.352 31.18 235.931 31.333 236.411 31.639C236.897 31.939 237.269 32.371 237.527 32.935C237.785 33.499 237.914 34.168 237.914 34.942V40H236.51ZM224.414 40V31.396H225.62L225.782 33.124C226.052 32.5 226.43 32.02 226.916 31.684C227.408 31.348 227.996 31.18 228.68 31.18C229.358 31.18 229.937 31.333 230.417 31.639C230.903 31.939 231.275 32.371 231.533 32.935C231.791 33.499 231.92 34.168 231.92 34.942V40H230.534V34.942C230.534 34.12 230.336 33.496 229.94 33.07C229.55 32.638 229.016 32.422 228.338 32.422C227.822 32.422 227.375 32.563 226.997 32.845C226.619 33.127 226.328 33.532 226.124 34.06C225.92 34.582 225.818 35.206 225.818 35.932V40H224.414Z" fill="black"/>
<path d="M17.4 18V9.208H22.818V10.146H18.492V13.1H22.566V14.038H18.492V17.048H22.818V18H17.4ZM34.6833 18V14.066C34.6833 13.4267 34.5293 12.9413 34.2213 12.61C33.918 12.274 33.5073 12.106 32.9893 12.106C32.3827 12.106 31.9183 12.3417 31.5963 12.813C31.2743 13.2797 31.1133 13.926 31.1133 14.752H30.6093C30.6093 14.15 30.6677 13.6227 30.7843 13.17C30.9057 12.7173 31.0807 12.3417 31.3093 12.043C31.538 11.7397 31.8157 11.5133 32.1423 11.364C32.469 11.2147 32.84 11.14 33.2553 11.14C33.7827 11.14 34.233 11.259 34.6063 11.497C34.9843 11.7303 35.2737 12.0663 35.4743 12.505C35.675 12.9437 35.7753 13.464 35.7753 14.066V18H34.6833ZM25.2753 18V11.308H26.2133L26.3393 12.652C26.5493 12.1667 26.8433 11.7933 27.2213 11.532C27.604 11.2707 28.0613 11.14 28.5933 11.14C29.1207 11.14 29.571 11.259 29.9443 11.497C30.3223 11.7303 30.6117 12.0663 30.8123 12.505C31.013 12.9437 31.1133 13.464 31.1133 14.066V18H30.0353V14.066C30.0353 13.4267 29.8813 12.9413 29.5733 12.61C29.27 12.274 28.8547 12.106 28.3273 12.106C27.926 12.106 27.5783 12.2157 27.2843 12.435C26.9903 12.6543 26.764 12.9693 26.6053 13.38C26.4467 13.786 26.3673 14.2713 26.3673 14.836V18H25.2753ZM42.517 18L42.377 16.53V13.66C42.377 13.058 42.2487 12.6263 41.992 12.365C41.7353 12.099 41.3503 11.966 40.837 11.966C40.5477 11.966 40.284 12.008 40.046 12.092C39.8127 12.176 39.626 12.3067 39.486 12.484C39.3507 12.6567 39.283 12.8807 39.283 13.156H38.065C38.065 12.6707 38.184 12.281 38.422 11.987C38.66 11.6883 38.9867 11.4737 39.402 11.343C39.822 11.2077 40.3003 11.14 40.837 11.14C41.3503 11.14 41.8053 11.2263 42.202 11.399C42.5987 11.5717 42.909 11.847 43.133 12.225C43.357 12.5983 43.469 13.086 43.469 13.688V18H42.517ZM40.235 18.168C39.6843 18.168 39.2293 18.07 38.87 17.874C38.5107 17.678 38.2423 17.4237 38.065 17.111C37.8877 16.7983 37.799 16.4693 37.799 16.124C37.799 15.6713 37.911 15.3027 38.135 15.018C38.3637 14.7333 38.674 14.5257 39.066 14.395C39.458 14.2597 39.899 14.192 40.389 14.192C40.739 14.192 41.089 14.227 41.439 14.297C41.7937 14.367 42.139 14.4627 42.475 14.584V15.27C42.195 15.158 41.8777 15.0693 41.523 15.004C41.173 14.9387 40.851 14.906 40.557 14.906C40.109 14.906 39.731 14.9993 39.423 15.186C39.115 15.368 38.961 15.6807 38.961 16.124C38.961 16.4507 39.0777 16.7307 39.311 16.964C39.549 17.1973 39.927 17.314 40.445 17.314C40.809 17.314 41.1357 17.23 41.425 17.062C41.719 16.8893 41.95 16.6747 42.118 16.418C42.2907 16.1613 42.377 15.9047 42.377 15.648H42.643C42.643 16.096 42.545 16.5113 42.349 16.894C42.1577 17.2767 41.8823 17.5847 41.523 17.818C41.1637 18.0513 40.7343 18.168 40.235 18.168ZM46.6999 9.726C46.4759 9.726 46.2986 9.663 46.1679 9.537C46.0373 9.40633 45.9719 9.236 45.9719 9.026C45.9719 8.82067 46.0373 8.65733 46.1679 8.536C46.2986 8.41467 46.4759 8.354 46.6999 8.354C46.9239 8.354 47.1013 8.41467 47.2319 8.536C47.3626 8.65733 47.4279 8.82067 47.4279 9.026C47.4279 9.236 47.3626 9.40633 47.2319 9.537C47.1013 9.663 46.9239 9.726 46.6999 9.726ZM46.1539 18V11.294H47.2459V18H46.1539ZM50.2538 18V8.452H51.3458V18H50.2538Z" fill="#0F7173"/>
</svg>
