<svg width="370" height="48" viewBox="0 0 370 48" fill="none" xmlns="http://www.w3.org/2000/svg">
<rect x="0.5" y="0.5" width="369" height="47" fill="white" stroke="#0F7173"/>
<path d="M21.346 40.216C20.458 40.216 19.681 40 19.015 39.568C18.355 39.136 17.839 38.485 17.467 37.615C17.101 36.745 16.918 35.656 16.918 34.348C16.918 33.04 17.101 31.954 17.467 31.09C17.839 30.22 18.355 29.572 19.015 29.146C19.681 28.714 20.458 28.498 21.346 28.498C22.228 28.498 23.002 28.714 23.668 29.146C24.334 29.572 24.85 30.22 25.216 31.09C25.588 31.954 25.774 33.04 25.774 34.348C25.774 35.656 25.588 36.745 25.216 37.615C24.85 38.485 24.334 39.136 23.668 39.568C23.002 40 22.228 40.216 21.346 40.216ZM21.346 38.92C22.318 38.92 23.056 38.524 23.56 37.732C24.064 36.934 24.316 35.806 24.316 34.348C24.316 32.89 24.064 31.765 23.56 30.973C23.056 30.175 22.318 29.776 21.346 29.776C20.386 29.776 19.651 30.175 19.141 30.973C18.631 31.765 18.376 32.89 18.376 34.348C18.376 35.806 18.631 36.934 19.141 37.732C19.651 38.524 20.386 38.92 21.346 38.92ZM32.0335 40.216C31.1455 40.216 30.3685 40 29.7025 39.568C29.0425 39.136 28.5265 38.485 28.1545 37.615C27.7885 36.745 27.6055 35.656 27.6055 34.348C27.6055 33.04 27.7885 31.954 28.1545 31.09C28.5265 30.22 29.0425 29.572 29.7025 29.146C30.3685 28.714 31.1455 28.498 32.0335 28.498C32.9155 28.498 33.6895 28.714 34.3555 29.146C35.0215 29.572 35.5375 30.22 35.9035 31.09C36.2755 31.954 36.4615 33.04 36.4615 34.348C36.4615 35.656 36.2755 36.745 35.9035 37.615C35.5375 38.485 35.0215 39.136 34.3555 39.568C33.6895 40 32.9155 40.216 32.0335 40.216ZM32.0335 38.92C33.0055 38.92 33.7435 38.524 34.2475 37.732C34.7515 36.934 35.0035 35.806 35.0035 34.348C35.0035 32.89 34.7515 31.765 34.2475 30.973C33.7435 30.175 33.0055 29.776 32.0335 29.776C31.0735 29.776 30.3385 30.175 29.8285 30.973C29.3185 31.765 29.0635 32.89 29.0635 34.348C29.0635 35.806 29.3185 36.934 29.8285 37.732C30.3385 38.524 31.0735 38.92 32.0335 38.92ZM42.721 40.216C41.833 40.216 41.056 40 40.39 39.568C39.73 39.136 39.214 38.485 38.842 37.615C38.476 36.745 38.293 35.656 38.293 34.348C38.293 33.04 38.476 31.954 38.842 31.09C39.214 30.22 39.73 29.572 40.39 29.146C41.056 28.714 41.833 28.498 42.721 28.498C43.603 28.498 44.377 28.714 45.043 29.146C45.709 29.572 46.225 30.22 46.591 31.09C46.963 31.954 47.149 33.04 47.149 34.348C47.149 35.656 46.963 36.745 46.591 37.615C46.225 38.485 45.709 39.136 45.043 39.568C44.377 40 43.603 40.216 42.721 40.216ZM42.721 38.92C43.693 38.92 44.431 38.524 44.935 37.732C45.439 36.934 45.691 35.806 45.691 34.348C45.691 32.89 45.439 31.765 44.935 30.973C44.431 30.175 43.693 29.776 42.721 29.776C41.761 29.776 41.026 30.175 40.516 30.973C40.006 31.765 39.751 32.89 39.751 34.348C39.751 35.806 40.006 36.934 40.516 37.732C41.026 38.524 41.761 38.92 42.721 38.92ZM48.7465 35.374V34.15H53.6425V35.374H48.7465ZM59.6663 40.216C58.7783 40.216 58.0013 40 57.3353 39.568C56.6753 39.136 56.1593 38.485 55.7873 37.615C55.4213 36.745 55.2383 35.656 55.2383 34.348C55.2383 33.04 55.4213 31.954 55.7873 31.09C56.1593 30.22 56.6753 29.572 57.3353 29.146C58.0013 28.714 58.7783 28.498 59.6663 28.498C60.5483 28.498 61.3223 28.714 61.9883 29.146C62.6543 29.572 63.1703 30.22 63.5363 31.09C63.9083 31.954 64.0943 33.04 64.0943 34.348C64.0943 35.656 63.9083 36.745 63.5363 37.615C63.1703 38.485 62.6543 39.136 61.9883 39.568C61.3223 40 60.5483 40.216 59.6663 40.216ZM59.6663 38.92C60.6383 38.92 61.3763 38.524 61.8803 37.732C62.3843 36.934 62.6363 35.806 62.6363 34.348C62.6363 32.89 62.3843 31.765 61.8803 30.973C61.3763 30.175 60.6383 29.776 59.6663 29.776C58.7063 29.776 57.9713 30.175 57.4613 30.973C56.9513 31.765 56.6963 32.89 56.6963 34.348C56.6963 35.806 56.9513 36.934 57.4613 37.732C57.9713 38.524 58.7063 38.92 59.6663 38.92ZM70.3538 40.216C69.4658 40.216 68.6888 40 68.0228 39.568C67.3628 39.136 66.8468 38.485 66.4748 37.615C66.1088 36.745 65.9258 35.656 65.9258 34.348C65.9258 33.04 66.1088 31.954 66.4748 31.09C66.8468 30.22 67.3628 29.572 68.0228 29.146C68.6888 28.714 69.4658 28.498 70.3538 28.498C71.2358 28.498 72.0098 28.714 72.6758 29.146C73.3418 29.572 73.8578 30.22 74.2238 31.09C74.5958 31.954 74.7818 33.04 74.7818 34.348C74.7818 35.656 74.5958 36.745 74.2238 37.615C73.8578 38.485 73.3418 39.136 72.6758 39.568C72.0098 40 71.2358 40.216 70.3538 40.216ZM70.3538 38.92C71.3258 38.92 72.0638 38.524 72.5678 37.732C73.0718 36.934 73.3238 35.806 73.3238 34.348C73.3238 32.89 73.0718 31.765 72.5678 30.973C72.0638 30.175 71.3258 29.776 70.3538 29.776C69.3938 29.776 68.6588 30.175 68.1488 30.973C67.6388 31.765 67.3838 32.89 67.3838 34.348C67.3838 35.806 67.6388 36.934 68.1488 37.732C68.6588 38.524 69.3938 38.92 70.3538 38.92ZM81.0413 40.216C80.1533 40.216 79.3763 40 78.7103 39.568C78.0503 39.136 77.5343 38.485 77.1623 37.615C76.7963 36.745 76.6133 35.656 76.6133 34.348C76.6133 33.04 76.7963 31.954 77.1623 31.09C77.5343 30.22 78.0503 29.572 78.7103 29.146C79.3763 28.714 80.1533 28.498 81.0413 28.498C81.9233 28.498 82.6973 28.714 83.3633 29.146C84.0293 29.572 84.5453 30.22 84.9113 31.09C85.2833 31.954 85.4693 33.04 85.4693 34.348C85.4693 35.656 85.2833 36.745 84.9113 37.615C84.5453 38.485 84.0293 39.136 83.3633 39.568C82.6973 40 81.9233 40.216 81.0413 40.216ZM81.0413 38.92C82.0133 38.92 82.7513 38.524 83.2553 37.732C83.7593 36.934 84.0113 35.806 84.0113 34.348C84.0113 32.89 83.7593 31.765 83.2553 30.973C82.7513 30.175 82.0133 29.776 81.0413 29.776C80.0813 29.776 79.3463 30.175 78.8363 30.973C78.3263 31.765 78.0713 32.89 78.0713 34.348C78.0713 35.806 78.3263 36.934 78.8363 37.732C79.3463 38.524 80.0813 38.92 81.0413 38.92ZM87.0668 35.374V34.15H91.9628V35.374H87.0668ZM97.9866 40.216C97.0986 40.216 96.3216 40 95.6556 39.568C94.9956 39.136 94.4796 38.485 94.1076 37.615C93.7416 36.745 93.5586 35.656 93.5586 34.348C93.5586 33.04 93.7416 31.954 94.1076 31.09C94.4796 30.22 94.9956 29.572 95.6556 29.146C96.3216 28.714 97.0986 28.498 97.9866 28.498C98.8686 28.498 99.6426 28.714 100.309 29.146C100.975 29.572 101.491 30.22 101.857 31.09C102.229 31.954 102.415 33.04 102.415 34.348C102.415 35.656 102.229 36.745 101.857 37.615C101.491 38.485 100.975 39.136 100.309 39.568C99.6426 40 98.8686 40.216 97.9866 40.216ZM97.9866 38.92C98.9586 38.92 99.6966 38.524 100.201 37.732C100.705 36.934 100.957 35.806 100.957 34.348C100.957 32.89 100.705 31.765 100.201 30.973C99.6966 30.175 98.9586 29.776 97.9866 29.776C97.0266 29.776 96.2916 30.175 95.7816 30.973C95.2716 31.765 95.0166 32.89 95.0166 34.348C95.0166 35.806 95.2716 36.934 95.7816 37.732C96.2916 38.524 97.0266 38.92 97.9866 38.92ZM108.674 40.216C107.786 40.216 107.009 40 106.343 39.568C105.683 39.136 105.167 38.485 104.795 37.615C104.429 36.745 104.246 35.656 104.246 34.348C104.246 33.04 104.429 31.954 104.795 31.09C105.167 30.22 105.683 29.572 106.343 29.146C107.009 28.714 107.786 28.498 108.674 28.498C109.556 28.498 110.33 28.714 110.996 29.146C111.662 29.572 112.178 30.22 112.544 31.09C112.916 31.954 113.102 33.04 113.102 34.348C113.102 35.656 112.916 36.745 112.544 37.615C112.178 38.485 111.662 39.136 110.996 39.568C110.33 40 109.556 40.216 108.674 40.216ZM108.674 38.92C109.646 38.92 110.384 38.524 110.888 37.732C111.392 36.934 111.644 35.806 111.644 34.348C111.644 32.89 111.392 31.765 110.888 30.973C110.384 30.175 109.646 29.776 108.674 29.776C107.714 29.776 106.979 30.175 106.469 30.973C105.959 31.765 105.704 32.89 105.704 34.348C105.704 35.806 105.959 36.934 106.469 37.732C106.979 38.524 107.714 38.92 108.674 38.92ZM119.362 40.216C118.474 40.216 117.697 40 117.031 39.568C116.371 39.136 115.855 38.485 115.483 37.615C115.117 36.745 114.934 35.656 114.934 34.348C114.934 33.04 115.117 31.954 115.483 31.09C115.855 30.22 116.371 29.572 117.031 29.146C117.697 28.714 118.474 28.498 119.362 28.498C120.244 28.498 121.018 28.714 121.684 29.146C122.35 29.572 122.866 30.22 123.232 31.09C123.604 31.954 123.79 33.04 123.79 34.348C123.79 35.656 123.604 36.745 123.232 37.615C122.866 38.485 122.35 39.136 121.684 39.568C121.018 40 120.244 40.216 119.362 40.216ZM119.362 38.92C120.334 38.92 121.072 38.524 121.576 37.732C122.08 36.934 122.332 35.806 122.332 34.348C122.332 32.89 122.08 31.765 121.576 30.973C121.072 30.175 120.334 29.776 119.362 29.776C118.402 29.776 117.667 30.175 117.157 30.973C116.647 31.765 116.392 32.89 116.392 34.348C116.392 35.806 116.647 36.934 117.157 37.732C117.667 38.524 118.402 38.92 119.362 38.92ZM130.049 40.216C129.161 40.216 128.384 40 127.718 39.568C127.058 39.136 126.542 38.485 126.17 37.615C125.804 36.745 125.621 35.656 125.621 34.348C125.621 33.04 125.804 31.954 126.17 31.09C126.542 30.22 127.058 29.572 127.718 29.146C128.384 28.714 129.161 28.498 130.049 28.498C130.931 28.498 131.705 28.714 132.371 29.146C133.037 29.572 133.553 30.22 133.919 31.09C134.291 31.954 134.477 33.04 134.477 34.348C134.477 35.656 134.291 36.745 133.919 37.615C133.553 38.485 133.037 39.136 132.371 39.568C131.705 40 130.931 40.216 130.049 40.216ZM130.049 38.92C131.021 38.92 131.759 38.524 132.263 37.732C132.767 36.934 133.019 35.806 133.019 34.348C133.019 32.89 132.767 31.765 132.263 30.973C131.759 30.175 131.021 29.776 130.049 29.776C129.089 29.776 128.354 30.175 127.844 30.973C127.334 31.765 127.079 32.89 127.079 34.348C127.079 35.806 127.334 36.934 127.844 37.732C128.354 38.524 129.089 38.92 130.049 38.92Z" fill="black"/>
<path d="M17.386 18V9.208H20.214C21.18 9.208 21.9173 9.453 22.426 9.943C22.9393 10.4283 23.196 11.0887 23.196 11.924C23.196 12.75 22.9393 13.4057 22.426 13.891C21.9173 14.3717 21.18 14.612 20.214 14.612H18.492V18H17.386ZM18.492 13.66H20.214C20.8253 13.66 21.2873 13.5037 21.6 13.191C21.9173 12.8783 22.076 12.456 22.076 11.924C22.076 11.3827 21.9173 10.951 21.6 10.629C21.2873 10.307 20.8253 10.146 20.214 10.146H18.492V13.66ZM29.926 18V14.066C29.926 13.4267 29.772 12.9413 29.464 12.61C29.1606 12.274 28.7453 12.106 28.218 12.106C27.8166 12.106 27.469 12.2157 27.175 12.435C26.881 12.6543 26.6546 12.9693 26.496 13.38C26.3373 13.786 26.258 14.2713 26.258 14.836H25.838C25.838 14.0567 25.9406 13.3917 26.146 12.841C26.3513 12.2903 26.65 11.8703 27.042 11.581C27.4386 11.287 27.9193 11.14 28.484 11.14C29.0113 11.14 29.4616 11.259 29.835 11.497C30.213 11.7303 30.5023 12.0663 30.703 12.505C30.9036 12.9437 31.004 13.464 31.004 14.066V18H29.926ZM25.166 18V8.452H26.258V18H25.166ZM36.0372 18.168C35.4352 18.168 34.8985 18.035 34.4272 17.769C33.9605 17.503 33.5918 17.1087 33.3212 16.586C33.0505 16.0633 32.9152 15.4193 32.9152 14.654C32.9152 13.884 33.0505 13.24 33.3212 12.722C33.5918 12.1993 33.9605 11.805 34.4272 11.539C34.8985 11.273 35.4352 11.14 36.0372 11.14C36.6345 11.14 37.1665 11.273 37.6332 11.539C38.1045 11.805 38.4732 12.1993 38.7392 12.722C39.0098 13.24 39.1452 13.884 39.1452 14.654C39.1452 15.4193 39.0098 16.0633 38.7392 16.586C38.4732 17.1087 38.1045 17.503 37.6332 17.769C37.1665 18.035 36.6345 18.168 36.0372 18.168ZM36.0092 17.216C36.4432 17.216 36.8118 17.1133 37.1152 16.908C37.4185 16.698 37.6472 16.4017 37.8012 16.019C37.9598 15.6363 38.0392 15.1813 38.0392 14.654C38.0392 13.856 37.8735 13.2283 37.5422 12.771C37.2108 12.309 36.7185 12.078 36.0652 12.078C35.6265 12.078 35.2555 12.183 34.9522 12.393C34.6535 12.5983 34.4248 12.8947 34.2662 13.282C34.1122 13.6647 34.0352 14.122 34.0352 14.654C34.0352 15.4427 34.2008 16.068 34.5322 16.53C34.8682 16.9873 35.3605 17.216 36.0092 17.216ZM46.0314 18V14.066C46.0314 13.4267 45.8774 12.9413 45.5694 12.61C45.2661 12.274 44.8508 12.106 44.3234 12.106C43.9221 12.106 43.5744 12.2157 43.2804 12.435C42.9864 12.6543 42.7601 12.9693 42.6014 13.38C42.4428 13.786 42.3634 14.2713 42.3634 14.836H41.9434C41.9434 14.0567 42.0461 13.3917 42.2514 12.841C42.4568 12.2903 42.7554 11.8703 43.1474 11.581C43.5441 11.287 44.0248 11.14 44.5894 11.14C45.1168 11.14 45.5671 11.259 45.9404 11.497C46.3184 11.7303 46.6078 12.0663 46.8084 12.505C47.0091 12.9437 47.1094 13.464 47.1094 14.066V18H46.0314ZM41.2714 18V11.308H42.2094L42.3634 12.848V18H41.2714ZM52.0446 18.168C51.466 18.168 50.948 18.021 50.4906 17.727C50.038 17.4283 49.6786 17.0153 49.4126 16.488C49.1513 15.9607 49.0206 15.354 49.0206 14.668C49.0206 13.9353 49.1513 13.3053 49.4126 12.778C49.674 12.2507 50.031 11.847 50.4836 11.567C50.941 11.2823 51.4613 11.14 52.0446 11.14C52.5533 11.14 52.9873 11.2427 53.3466 11.448C53.706 11.6533 53.9953 11.931 54.2146 12.281C54.434 12.631 54.5856 13.0277 54.6696 13.471C54.7583 13.9097 54.784 14.3647 54.7466 14.836H49.9026V14.164H54.0256L53.7036 14.374C53.7176 14.0987 53.7013 13.8233 53.6546 13.548C53.6126 13.2727 53.531 13.0207 53.4096 12.792C53.2883 12.5587 53.118 12.372 52.8986 12.232C52.6793 12.092 52.3993 12.022 52.0586 12.022C51.6293 12.022 51.27 12.1317 50.9806 12.351C50.6913 12.5703 50.4743 12.8597 50.3296 13.219C50.185 13.5737 50.1126 13.9587 50.1126 14.374V14.822C50.1126 15.2887 50.1826 15.7063 50.3226 16.075C50.4673 16.4437 50.682 16.7353 50.9666 16.95C51.2513 17.1647 51.6106 17.272 52.0446 17.272C52.4786 17.272 52.8356 17.167 53.1156 16.957C53.3956 16.747 53.566 16.4367 53.6266 16.026H54.7606C54.6906 16.4693 54.532 16.852 54.2846 17.174C54.0373 17.4913 53.7223 17.7363 53.3396 17.909C52.957 18.0817 52.5253 18.168 52.0446 18.168ZM60.2203 9.208H61.5223L65.9883 16.446H65.8903V9.208H66.9823V18H65.7643L61.1443 10.524H61.3123V18H60.2203V9.208ZM74.3546 11.294H75.4466V18H74.3546V11.294ZM69.6086 11.294H70.7006V15.466C70.7006 16.026 70.836 16.4507 71.1066 16.74C71.382 17.0293 71.774 17.174 72.2826 17.174C72.7026 17.174 73.0666 17.062 73.3746 16.838C73.6873 16.614 73.9276 16.306 74.0956 15.914C74.2683 15.5173 74.3546 15.0647 74.3546 14.556H74.7606C74.7606 15.3073 74.651 15.949 74.4316 16.481C74.217 17.013 73.9113 17.4213 73.5146 17.706C73.1226 17.986 72.6606 18.126 72.1286 18.126C71.6246 18.126 71.1836 18.0327 70.8056 17.846C70.4276 17.6593 70.1336 17.377 69.9236 16.999C69.7136 16.6163 69.6086 16.1333 69.6086 15.55V11.294ZM87.6892 18V14.066C87.6892 13.4267 87.5352 12.9413 87.2272 12.61C86.9239 12.274 86.5132 12.106 85.9952 12.106C85.3885 12.106 84.9242 12.3417 84.6022 12.813C84.2802 13.2797 84.1192 13.926 84.1192 14.752H83.6152C83.6152 14.15 83.6735 13.6227 83.7902 13.17C83.9115 12.7173 84.0865 12.3417 84.3152 12.043C84.5439 11.7397 84.8215 11.5133 85.1482 11.364C85.4749 11.2147 85.8459 11.14 86.2612 11.14C86.7885 11.14 87.2389 11.259 87.6122 11.497C87.9902 11.7303 88.2795 12.0663 88.4802 12.505C88.6809 12.9437 88.7812 13.464 88.7812 14.066V18H87.6892ZM78.2812 18V11.308H79.2192L79.3452 12.652C79.5552 12.1667 79.8492 11.7933 80.2272 11.532C80.6099 11.2707 81.0672 11.14 81.5992 11.14C82.1265 11.14 82.5769 11.259 82.9502 11.497C83.3282 11.7303 83.6175 12.0663 83.8182 12.505C84.0189 12.9437 84.1192 13.464 84.1192 14.066V18H83.0412V14.066C83.0412 13.4267 82.8872 12.9413 82.5792 12.61C82.2759 12.274 81.8605 12.106 81.3332 12.106C80.9319 12.106 80.5842 12.2157 80.2902 12.435C79.9962 12.6543 79.7699 12.9693 79.6112 13.38C79.4525 13.786 79.3732 14.2713 79.3732 14.836V18H78.2812ZM94.4448 18.168C93.9968 18.168 93.5908 18.0513 93.2268 17.818C92.8675 17.5847 92.5805 17.244 92.3658 16.796C92.1558 16.3433 92.0508 15.7927 92.0508 15.144H92.4708C92.4708 15.578 92.5595 15.949 92.7368 16.257C92.9188 16.5603 93.1522 16.7913 93.4368 16.95C93.7215 17.1087 94.0202 17.188 94.3328 17.188C94.6922 17.188 95.0212 17.0853 95.3198 16.88C95.6185 16.6747 95.8565 16.3807 96.0338 15.998C96.2158 15.6153 96.3068 15.158 96.3068 14.626C96.3068 14.1033 96.2182 13.6553 96.0408 13.282C95.8635 12.904 95.6232 12.6147 95.3198 12.414C95.0212 12.2087 94.6875 12.106 94.3188 12.106C94.0015 12.106 93.7005 12.1853 93.4158 12.344C93.1358 12.498 92.9072 12.7267 92.7298 13.03C92.5572 13.3333 92.4708 13.7067 92.4708 14.15H92.0508C92.0508 13.5153 92.1535 12.974 92.3588 12.526C92.5688 12.078 92.8582 11.735 93.2268 11.497C93.5955 11.259 94.0248 11.14 94.5148 11.14C95.0422 11.14 95.5252 11.2823 95.9638 11.567C96.4072 11.847 96.7618 12.2483 97.0278 12.771C97.2938 13.2937 97.4268 13.912 97.4268 14.626C97.4268 15.3447 97.2915 15.97 97.0208 16.502C96.7502 17.0293 96.3885 17.44 95.9358 17.734C95.4832 18.0233 94.9862 18.168 94.4448 18.168ZM91.3788 18V8.452H92.4708V16.432L92.1488 18H91.3788ZM102.002 18.168C101.423 18.168 100.905 18.021 100.448 17.727C99.995 17.4283 99.6357 17.0153 99.3697 16.488C99.1083 15.9607 98.9777 15.354 98.9777 14.668C98.9777 13.9353 99.1083 13.3053 99.3697 12.778C99.631 12.2507 99.988 11.847 100.441 11.567C100.898 11.2823 101.418 11.14 102.002 11.14C102.51 11.14 102.944 11.2427 103.304 11.448C103.663 11.6533 103.952 11.931 104.172 12.281C104.391 12.631 104.543 13.0277 104.627 13.471C104.715 13.9097 104.741 14.3647 104.704 14.836H99.8597V14.164H103.983L103.661 14.374C103.675 14.0987 103.658 13.8233 103.612 13.548C103.57 13.2727 103.488 13.0207 103.367 12.792C103.245 12.5587 103.075 12.372 102.856 12.232C102.636 12.092 102.356 12.022 102.016 12.022C101.586 12.022 101.227 12.1317 100.938 12.351C100.648 12.5703 100.431 12.8597 100.287 13.219C100.142 13.5737 100.07 13.9587 100.07 14.374V14.822C100.07 15.2887 100.14 15.7063 100.28 16.075C100.424 16.4437 100.639 16.7353 100.924 16.95C101.208 17.1647 101.568 17.272 102.002 17.272C102.436 17.272 102.793 17.167 103.073 16.957C103.353 16.747 103.523 16.4367 103.584 16.026H104.718C104.648 16.4693 104.489 16.852 104.242 17.174C103.994 17.4913 103.679 17.7363 103.297 17.909C102.914 18.0817 102.482 18.168 102.002 18.168ZM106.869 18V11.294H107.961V18H106.869ZM107.625 14.976C107.625 14.1267 107.707 13.422 107.87 12.862C108.033 12.2973 108.271 11.8773 108.584 11.602C108.901 11.322 109.286 11.182 109.739 11.182C109.888 11.182 110.024 11.1937 110.145 11.217C110.271 11.2357 110.397 11.266 110.523 11.308L110.453 12.386C110.322 12.344 110.18 12.309 110.026 12.281C109.872 12.2483 109.734 12.232 109.613 12.232C109.216 12.232 108.897 12.3463 108.654 12.575C108.411 12.799 108.234 13.1163 108.122 13.527C108.015 13.9377 107.961 14.4207 107.961 14.976H107.625Z" fill="#0F7173"/>
</svg>
