<svg width="32" height="32" viewBox="0 0 32 32" fill="none" xmlns="http://www.w3.org/2000/svg">
<path d="M16 3C8.832 3 3 8.832 3 16C3 23.168 8.832 29 16 29C23.168 29 29 23.168 29 16C29 8.832 23.168 3 16 3ZM16 5C22.086 5 27 9.914 27 16C27 22.086 22.086 27 16 27C9.914 27 5 22.086 5 16C5 9.914 9.914 5 16 5ZM15.906 10C12.582 10 9.906 12.676 9.906 16C9.906 19.324 12.582 22 15.906 22C18.305 22 20.356 20.562 21.312 18.531L19.5 17.688C18.855 19.058 17.508 20 15.906 20C13.629 20 11.906 18.277 11.906 16C11.906 13.723 13.629 12 15.906 12C17.508 12 18.856 12.941 19.5 14.313L21.313 13.469C20.355 11.438 18.305 10 15.905 10H15.906Z" fill="white"/>
</svg>
