<svg width="250" height="36" viewBox="0 0 250 36" fill="none" xmlns="http://www.w3.org/2000/svg">
<rect x="0.5" y="0.5" width="249" height="35" rx="17.5" fill="#5451D6" stroke="white"/>
<path d="M106.222 12.696V22.776H111.262V24H104.818V12.696H106.222ZM116.352 24.216C115.578 24.216 114.888 24.045 114.282 23.703C113.682 23.361 113.208 22.854 112.86 22.182C112.512 21.51 112.338 20.682 112.338 19.698C112.338 18.708 112.512 17.88 112.86 17.214C113.208 16.542 113.682 16.035 114.282 15.693C114.888 15.351 115.578 15.18 116.352 15.18C117.12 15.18 117.804 15.351 118.404 15.693C119.01 16.035 119.484 16.542 119.826 17.214C120.174 17.88 120.348 18.708 120.348 19.698C120.348 20.682 120.174 21.51 119.826 22.182C119.484 22.854 119.01 23.361 118.404 23.703C117.804 24.045 117.12 24.216 116.352 24.216ZM116.316 22.992C116.874 22.992 117.348 22.86 117.738 22.596C118.128 22.326 118.422 21.945 118.62 21.453C118.824 20.961 118.926 20.376 118.926 19.698C118.926 18.672 118.713 17.865 118.287 17.277C117.861 16.683 117.228 16.386 116.388 16.386C115.824 16.386 115.347 16.521 114.957 16.791C114.573 17.055 114.279 17.436 114.075 17.934C113.877 18.426 113.778 19.014 113.778 19.698C113.778 20.712 113.991 21.516 114.417 22.11C114.849 22.698 115.482 22.992 116.316 22.992ZM126.124 28.428C125.242 28.428 124.477 28.302 123.829 28.05C123.181 27.804 122.677 27.471 122.317 27.051C121.963 26.637 121.786 26.178 121.786 25.674C121.786 25.008 122.029 24.498 122.515 24.144C123.007 23.796 123.64 23.622 124.414 23.622L125.188 24.108C124.54 24.108 124.039 24.243 123.685 24.513C123.331 24.783 123.154 25.152 123.154 25.62C123.154 26.088 123.406 26.484 123.91 26.808C124.414 27.132 125.152 27.294 126.124 27.294C126.844 27.294 127.474 27.189 128.014 26.979C128.56 26.775 128.983 26.505 129.283 26.169C129.589 25.839 129.742 25.482 129.742 25.098C129.742 24.828 129.643 24.594 129.445 24.396C129.247 24.204 128.944 24.108 128.536 24.108H125.188C124.606 24.108 124.102 24.021 123.676 23.847C123.256 23.667 122.932 23.433 122.704 23.145C122.476 22.857 122.362 22.542 122.362 22.2C122.362 21.84 122.464 21.534 122.668 21.282C122.872 21.03 123.136 20.838 123.46 20.706C123.79 20.574 124.144 20.508 124.522 20.508L124.792 21.03C124.612 21.03 124.429 21.072 124.243 21.156C124.063 21.234 123.91 21.354 123.784 21.516C123.664 21.672 123.604 21.87 123.604 22.11C123.604 22.386 123.718 22.617 123.946 22.803C124.174 22.989 124.588 23.082 125.188 23.082H128.536C129.346 23.082 129.982 23.253 130.444 23.595C130.912 23.937 131.146 24.414 131.146 25.026C131.146 25.59 130.945 26.13 130.543 26.646C130.141 27.168 129.565 27.594 128.815 27.924C128.065 28.26 127.168 28.428 126.124 28.428ZM126.376 21.48C125.716 21.48 125.119 21.348 124.585 21.084C124.057 20.82 123.637 20.451 123.325 19.977C123.019 19.503 122.866 18.954 122.866 18.33C122.866 17.7 123.019 17.148 123.325 16.674C123.637 16.2 124.057 15.834 124.585 15.576C125.119 15.312 125.716 15.18 126.376 15.18C127.018 15.18 127.6 15.312 128.122 15.576C128.65 15.834 129.07 16.2 129.382 16.674C129.694 17.148 129.85 17.7 129.85 18.33C129.85 18.954 129.694 19.503 129.382 19.977C129.07 20.451 128.65 20.82 128.122 21.084C127.6 21.348 127.018 21.48 126.376 21.48ZM126.376 20.472C127.036 20.472 127.549 20.268 127.915 19.86C128.281 19.452 128.464 18.942 128.464 18.33C128.464 17.7 128.281 17.19 127.915 16.8C127.549 16.404 127.036 16.206 126.376 16.206C125.722 16.206 125.206 16.404 124.828 16.8C124.456 17.19 124.27 17.7 124.27 18.33C124.27 18.942 124.456 19.452 124.828 19.86C125.206 20.268 125.722 20.472 126.376 20.472ZM129.202 16.548L128.536 16.278C128.536 15.774 128.635 15.333 128.833 14.955C129.031 14.571 129.313 14.274 129.679 14.064C130.045 13.848 130.48 13.74 130.984 13.74L130.876 15.126C130.336 15.126 129.922 15.243 129.634 15.477C129.346 15.705 129.202 16.062 129.202 16.548ZM134.034 13.362C133.746 13.362 133.518 13.281 133.35 13.119C133.182 12.951 133.098 12.732 133.098 12.462C133.098 12.198 133.182 11.988 133.35 11.832C133.518 11.676 133.746 11.598 134.034 11.598C134.322 11.598 134.55 11.676 134.718 11.832C134.886 11.988 134.97 12.198 134.97 12.462C134.97 12.732 134.886 12.951 134.718 13.119C134.55 13.281 134.322 13.362 134.034 13.362ZM133.332 24V15.378H134.736V24H133.332ZM144.723 24V18.942C144.723 18.12 144.525 17.496 144.129 17.07C143.739 16.638 143.205 16.422 142.527 16.422C142.011 16.422 141.564 16.563 141.186 16.845C140.808 17.127 140.517 17.532 140.313 18.06C140.109 18.582 140.007 19.206 140.007 19.932H139.467C139.467 18.93 139.599 18.075 139.863 17.367C140.127 16.659 140.511 16.119 141.015 15.747C141.525 15.369 142.143 15.18 142.869 15.18C143.547 15.18 144.126 15.333 144.606 15.639C145.092 15.939 145.464 16.371 145.722 16.935C145.98 17.499 146.109 18.168 146.109 18.942V24H144.723ZM138.603 24V15.396H139.809L140.007 17.376V24H138.603Z" fill="white"/>
</svg>
