<svg width="250" height="36" viewBox="0 0 250 36" fill="none" xmlns="http://www.w3.org/2000/svg">
<rect x="0.5" y="0.5" width="249" height="35" rx="17.5" fill="#5451D6" stroke="white"/>
<path d="M95.436 24.216C94.68 24.216 93.987 24.081 93.357 23.811C92.727 23.535 92.22 23.13 91.836 22.596C91.452 22.062 91.254 21.402 91.242 20.616H92.61C92.61 21.144 92.739 21.579 92.997 21.921C93.255 22.257 93.597 22.509 94.023 22.677C94.449 22.839 94.914 22.92 95.418 22.92C95.964 22.92 96.438 22.833 96.84 22.659C97.242 22.485 97.551 22.257 97.767 21.975C97.989 21.687 98.1 21.372 98.1 21.03C98.1 20.55 97.953 20.163 97.659 19.869C97.365 19.569 96.93 19.326 96.354 19.14L94.356 18.438C93.42 18.102 92.712 17.718 92.232 17.286C91.752 16.854 91.512 16.248 91.512 15.468C91.512 14.592 91.848 13.878 92.52 13.326C93.198 12.774 94.158 12.498 95.4 12.498C96.552 12.498 97.452 12.765 98.1 13.299C98.748 13.827 99.12 14.538 99.216 15.432H97.83C97.74 14.91 97.494 14.505 97.092 14.217C96.696 13.923 96.132 13.776 95.4 13.776C94.656 13.776 94.077 13.941 93.663 14.271C93.249 14.601 93.042 15.018 93.042 15.522C93.042 15.936 93.171 16.266 93.429 16.512C93.693 16.752 94.104 16.968 94.662 17.16L97.002 17.97C97.812 18.24 98.451 18.618 98.919 19.104C99.393 19.59 99.63 20.22 99.63 20.994C99.63 21.594 99.468 22.137 99.144 22.623C98.826 23.109 98.355 23.496 97.731 23.784C97.107 24.072 96.342 24.216 95.436 24.216ZM103.491 13.362C103.203 13.362 102.975 13.281 102.807 13.119C102.639 12.951 102.555 12.732 102.555 12.462C102.555 12.198 102.639 11.988 102.807 11.832C102.975 11.676 103.203 11.598 103.491 11.598C103.779 11.598 104.007 11.676 104.175 11.832C104.343 11.988 104.427 12.198 104.427 12.462C104.427 12.732 104.343 12.951 104.175 13.119C104.007 13.281 103.779 13.362 103.491 13.362ZM102.789 24V15.378H104.193V24H102.789ZM111.102 28.428C110.22 28.428 109.455 28.302 108.807 28.05C108.159 27.804 107.655 27.471 107.295 27.051C106.941 26.637 106.764 26.178 106.764 25.674C106.764 25.008 107.007 24.498 107.493 24.144C107.985 23.796 108.618 23.622 109.392 23.622L110.166 24.108C109.518 24.108 109.017 24.243 108.663 24.513C108.309 24.783 108.132 25.152 108.132 25.62C108.132 26.088 108.384 26.484 108.888 26.808C109.392 27.132 110.13 27.294 111.102 27.294C111.822 27.294 112.452 27.189 112.992 26.979C113.538 26.775 113.961 26.505 114.261 26.169C114.567 25.839 114.72 25.482 114.72 25.098C114.72 24.828 114.621 24.594 114.423 24.396C114.225 24.204 113.922 24.108 113.514 24.108H110.166C109.584 24.108 109.08 24.021 108.654 23.847C108.234 23.667 107.91 23.433 107.682 23.145C107.454 22.857 107.34 22.542 107.34 22.2C107.34 21.84 107.442 21.534 107.646 21.282C107.85 21.03 108.114 20.838 108.438 20.706C108.768 20.574 109.122 20.508 109.5 20.508L109.77 21.03C109.59 21.03 109.407 21.072 109.221 21.156C109.041 21.234 108.888 21.354 108.762 21.516C108.642 21.672 108.582 21.87 108.582 22.11C108.582 22.386 108.696 22.617 108.924 22.803C109.152 22.989 109.566 23.082 110.166 23.082H113.514C114.324 23.082 114.96 23.253 115.422 23.595C115.89 23.937 116.124 24.414 116.124 25.026C116.124 25.59 115.923 26.13 115.521 26.646C115.119 27.168 114.543 27.594 113.793 27.924C113.043 28.26 112.146 28.428 111.102 28.428ZM111.354 21.48C110.694 21.48 110.097 21.348 109.563 21.084C109.035 20.82 108.615 20.451 108.303 19.977C107.997 19.503 107.844 18.954 107.844 18.33C107.844 17.7 107.997 17.148 108.303 16.674C108.615 16.2 109.035 15.834 109.563 15.576C110.097 15.312 110.694 15.18 111.354 15.18C111.996 15.18 112.578 15.312 113.1 15.576C113.628 15.834 114.048 16.2 114.36 16.674C114.672 17.148 114.828 17.7 114.828 18.33C114.828 18.954 114.672 19.503 114.36 19.977C114.048 20.451 113.628 20.82 113.1 21.084C112.578 21.348 111.996 21.48 111.354 21.48ZM111.354 20.472C112.014 20.472 112.527 20.268 112.893 19.86C113.259 19.452 113.442 18.942 113.442 18.33C113.442 17.7 113.259 17.19 112.893 16.8C112.527 16.404 112.014 16.206 111.354 16.206C110.7 16.206 110.184 16.404 109.806 16.8C109.434 17.19 109.248 17.7 109.248 18.33C109.248 18.942 109.434 19.452 109.806 19.86C110.184 20.268 110.7 20.472 111.354 20.472ZM114.18 16.548L113.514 16.278C113.514 15.774 113.613 15.333 113.811 14.955C114.009 14.571 114.291 14.274 114.657 14.064C115.023 13.848 115.458 13.74 115.962 13.74L115.854 15.126C115.314 15.126 114.9 15.243 114.612 15.477C114.324 15.705 114.18 16.062 114.18 16.548ZM124.34 24V18.942C124.34 18.12 124.142 17.496 123.746 17.07C123.356 16.638 122.822 16.422 122.144 16.422C121.628 16.422 121.181 16.563 120.803 16.845C120.425 17.127 120.134 17.532 119.93 18.06C119.726 18.582 119.624 19.206 119.624 19.932H119.084C119.084 18.93 119.216 18.075 119.48 17.367C119.744 16.659 120.128 16.119 120.632 15.747C121.142 15.369 121.76 15.18 122.486 15.18C123.164 15.18 123.743 15.333 124.223 15.639C124.709 15.939 125.081 16.371 125.339 16.935C125.597 17.499 125.726 18.168 125.726 18.942V24H124.34ZM118.22 24V15.396H119.426L119.624 17.376V24H118.22ZM133.103 12.696H134.507V19.914C134.507 20.976 134.774 21.744 135.308 22.218C135.842 22.686 136.541 22.92 137.405 22.92C138.263 22.92 138.956 22.686 139.484 22.218C140.018 21.744 140.285 20.976 140.285 19.914V12.696H141.689V19.914C141.689 20.862 141.512 21.657 141.158 22.299C140.81 22.935 140.315 23.415 139.673 23.739C139.031 24.057 138.275 24.216 137.405 24.216C136.535 24.216 135.776 24.057 135.128 23.739C134.486 23.415 133.988 22.935 133.634 22.299C133.28 21.657 133.103 20.862 133.103 19.914V12.696ZM149.021 24.216C148.391 24.216 147.842 24.072 147.374 23.784C146.912 23.496 146.555 23.076 146.303 22.524C146.051 21.966 145.925 21.288 145.925 20.49H146.519C146.519 21.024 146.63 21.474 146.852 21.84C147.074 22.206 147.362 22.485 147.716 22.677C148.076 22.863 148.457 22.956 148.859 22.956C149.291 22.956 149.705 22.833 150.101 22.587C150.497 22.335 150.821 21.966 151.073 21.48C151.325 20.994 151.451 20.394 151.451 19.68C151.451 18.996 151.334 18.411 151.1 17.925C150.872 17.439 150.563 17.067 150.173 16.809C149.783 16.551 149.351 16.422 148.877 16.422C148.469 16.422 148.085 16.521 147.725 16.719C147.365 16.917 147.074 17.208 146.852 17.592C146.63 17.97 146.519 18.438 146.519 18.996H145.925C145.925 18.162 146.063 17.463 146.339 16.899C146.615 16.329 146.99 15.9 147.464 15.612C147.938 15.324 148.469 15.18 149.057 15.18C149.729 15.18 150.356 15.36 150.938 15.72C151.52 16.08 151.991 16.596 152.351 17.268C152.711 17.94 152.891 18.744 152.891 19.68C152.891 20.628 152.708 21.441 152.342 22.119C151.982 22.797 151.508 23.316 150.92 23.676C150.332 24.036 149.699 24.216 149.021 24.216ZM145.115 28.23V15.396H146.285L146.519 17.412V28.23H145.115Z" fill="white"/>
</svg>
