<svg width="370" height="48" viewBox="0 0 370 48" fill="none" xmlns="http://www.w3.org/2000/svg">
<rect x="0.5" y="0.5" width="369" height="47" fill="white" stroke="#0F7173"/>
<path d="M17.8 30V18.696H24.766V19.902H19.204V23.7H24.442V24.906H19.204V28.776H24.766V30H17.8ZM40.0214 30V24.942C40.0214 24.12 39.8234 23.496 39.4274 23.07C39.0374 22.638 38.5094 22.422 37.8434 22.422C37.0634 22.422 36.4664 22.725 36.0524 23.331C35.6384 23.931 35.4314 24.762 35.4314 25.824H34.7834C34.7834 25.05 34.8584 24.372 35.0084 23.79C35.1644 23.208 35.3894 22.725 35.6834 22.341C35.9774 21.951 36.3344 21.66 36.7544 21.468C37.1744 21.276 37.6514 21.18 38.1854 21.18C38.8634 21.18 39.4424 21.333 39.9224 21.639C40.4084 21.939 40.7804 22.371 41.0384 22.935C41.2964 23.499 41.4254 24.168 41.4254 24.942V30H40.0214ZM27.9254 30V21.396H29.1314L29.2934 23.124C29.5634 22.5 29.9414 22.02 30.4274 21.684C30.9194 21.348 31.5074 21.18 32.1914 21.18C32.8694 21.18 33.4484 21.333 33.9284 21.639C34.4144 21.939 34.7864 22.371 35.0444 22.935C35.3024 23.499 35.4314 24.168 35.4314 24.942V30H34.0454V24.942C34.0454 24.12 33.8474 23.496 33.4514 23.07C33.0614 22.638 32.5274 22.422 31.8494 22.422C31.3334 22.422 30.8864 22.563 30.5084 22.845C30.1304 23.127 29.8394 23.532 29.6354 24.06C29.4314 24.582 29.3294 25.206 29.3294 25.932V30H27.9254ZM50.0933 30L49.9133 28.11V24.42C49.9133 23.646 49.7483 23.091 49.4183 22.755C49.0883 22.413 48.5933 22.242 47.9333 22.242C47.5613 22.242 47.2223 22.296 46.9163 22.404C46.6163 22.512 46.3763 22.68 46.1963 22.908C46.0223 23.13 45.9353 23.418 45.9353 23.772H44.3693C44.3693 23.148 44.5223 22.647 44.8283 22.269C45.1343 21.885 45.5543 21.609 46.0883 21.441C46.6283 21.267 47.2433 21.18 47.9333 21.18C48.5933 21.18 49.1783 21.291 49.6883 21.513C50.1983 21.735 50.5973 22.089 50.8853 22.575C51.1733 23.055 51.3173 23.682 51.3173 24.456V30H50.0933ZM47.1593 30.216C46.4513 30.216 45.8663 30.09 45.4043 29.838C44.9423 29.586 44.5973 29.259 44.3693 28.857C44.1413 28.455 44.0273 28.032 44.0273 27.588C44.0273 27.006 44.1713 26.532 44.4593 26.166C44.7533 25.8 45.1523 25.533 45.6563 25.365C46.1603 25.191 46.7273 25.104 47.3573 25.104C47.8073 25.104 48.2573 25.149 48.7073 25.239C49.1633 25.329 49.6073 25.452 50.0393 25.608V26.49C49.6793 26.346 49.2713 26.232 48.8153 26.148C48.3653 26.064 47.9513 26.022 47.5733 26.022C46.9973 26.022 46.5113 26.142 46.1153 26.382C45.7193 26.616 45.5213 27.018 45.5213 27.588C45.5213 28.008 45.6713 28.368 45.9713 28.668C46.2773 28.968 46.7633 29.118 47.4293 29.118C47.8973 29.118 48.3173 29.01 48.6893 28.794C49.0673 28.572 49.3643 28.296 49.5803 27.966C49.8023 27.636 49.9133 27.306 49.9133 26.976H50.2553C50.2553 27.552 50.1293 28.086 49.8773 28.578C49.6313 29.07 49.2773 29.466 48.8153 29.766C48.3533 30.066 47.8013 30.216 47.1593 30.216ZM55.4713 19.362C55.1833 19.362 54.9553 19.281 54.7873 19.119C54.6193 18.951 54.5353 18.732 54.5353 18.462C54.5353 18.198 54.6193 17.988 54.7873 17.832C54.9553 17.676 55.1833 17.598 55.4713 17.598C55.7593 17.598 55.9873 17.676 56.1553 17.832C56.3233 17.988 56.4073 18.198 56.4073 18.462C56.4073 18.732 56.3233 18.951 56.1553 19.119C55.9873 19.281 55.7593 19.362 55.4713 19.362ZM54.7693 30V21.378H56.1733V30H54.7693ZM60.0407 30V17.724H61.4447V30H60.0407Z" fill="black" fill-opacity="0.6"/>
</svg>
