<svg width="370" height="48" viewBox="0 0 370 48" fill="none" xmlns="http://www.w3.org/2000/svg">
<rect x="0.5" y="0.5" width="369" height="47" fill="white" stroke="#0F7173"/>
<path d="M17.4 9.208H18.702L23.168 16.446H23.07V9.208H24.162V18H22.944L18.324 10.524H18.492V18H17.4V9.208ZM31.1283 18L30.9883 16.53V13.66C30.9883 13.058 30.86 12.6263 30.6033 12.365C30.3466 12.099 29.9616 11.966 29.4483 11.966C29.159 11.966 28.8953 12.008 28.6573 12.092C28.424 12.176 28.2373 12.3067 28.0973 12.484C27.962 12.6567 27.8943 12.8807 27.8943 13.156H26.6763C26.6763 12.6707 26.7953 12.281 27.0333 11.987C27.2713 11.6883 27.598 11.4737 28.0133 11.343C28.4333 11.2077 28.9116 11.14 29.4483 11.14C29.9616 11.14 30.4166 11.2263 30.8133 11.399C31.21 11.5717 31.5203 11.847 31.7443 12.225C31.9683 12.5983 32.0803 13.086 32.0803 13.688V18H31.1283ZM28.8463 18.168C28.2956 18.168 27.8406 18.07 27.4813 17.874C27.122 17.678 26.8536 17.4237 26.6763 17.111C26.499 16.7983 26.4103 16.4693 26.4103 16.124C26.4103 15.6713 26.5223 15.3027 26.7463 15.018C26.975 14.7333 27.2853 14.5257 27.6773 14.395C28.0693 14.2597 28.5103 14.192 29.0003 14.192C29.3503 14.192 29.7003 14.227 30.0503 14.297C30.405 14.367 30.7503 14.4627 31.0863 14.584V15.27C30.8063 15.158 30.489 15.0693 30.1343 15.004C29.7843 14.9387 29.4623 14.906 29.1683 14.906C28.7203 14.906 28.3423 14.9993 28.0343 15.186C27.7263 15.368 27.5723 15.6807 27.5723 16.124C27.5723 16.4507 27.689 16.7307 27.9223 16.964C28.1603 17.1973 28.5383 17.314 29.0563 17.314C29.4203 17.314 29.747 17.23 30.0363 17.062C30.3303 16.8893 30.5613 16.6747 30.7293 16.418C30.902 16.1613 30.9883 15.9047 30.9883 15.648H31.2543C31.2543 16.096 31.1563 16.5113 30.9603 16.894C30.769 17.2767 30.4936 17.5847 30.1343 17.818C29.775 18.0513 29.3456 18.168 28.8463 18.168ZM44.1033 18V14.066C44.1033 13.4267 43.9493 12.9413 43.6413 12.61C43.3379 12.274 42.9273 12.106 42.4093 12.106C41.8026 12.106 41.3383 12.3417 41.0163 12.813C40.6943 13.2797 40.5333 13.926 40.5333 14.752H40.0293C40.0293 14.15 40.0876 13.6227 40.2043 13.17C40.3256 12.7173 40.5006 12.3417 40.7293 12.043C40.9579 11.7397 41.2356 11.5133 41.5623 11.364C41.8889 11.2147 42.2599 11.14 42.6753 11.14C43.2026 11.14 43.6529 11.259 44.0263 11.497C44.4043 11.7303 44.6936 12.0663 44.8943 12.505C45.0949 12.9437 45.1953 13.464 45.1953 14.066V18H44.1033ZM34.6953 18V11.308H35.6333L35.7593 12.652C35.9693 12.1667 36.2633 11.7933 36.6413 11.532C37.0239 11.2707 37.4813 11.14 38.0133 11.14C38.5406 11.14 38.9909 11.259 39.3643 11.497C39.7423 11.7303 40.0316 12.0663 40.2323 12.505C40.4329 12.9437 40.5333 13.464 40.5333 14.066V18H39.4553V14.066C39.4553 13.4267 39.3013 12.9413 38.9933 12.61C38.6899 12.274 38.2746 12.106 37.7473 12.106C37.3459 12.106 36.9983 12.2157 36.7043 12.435C36.4103 12.6543 36.1839 12.9693 36.0253 13.38C35.8666 13.786 35.7873 14.2713 35.7873 14.836V18H34.6953ZM50.1169 18.168C49.5382 18.168 49.0202 18.021 48.5629 17.727C48.1102 17.4283 47.7509 17.0153 47.4849 16.488C47.2236 15.9607 47.0929 15.354 47.0929 14.668C47.0929 13.9353 47.2236 13.3053 47.4849 12.778C47.7462 12.2507 48.1032 11.847 48.5559 11.567C49.0132 11.2823 49.5336 11.14 50.1169 11.14C50.6256 11.14 51.0596 11.2427 51.4189 11.448C51.7782 11.6533 52.0676 11.931 52.2869 12.281C52.5062 12.631 52.6579 13.0277 52.7419 13.471C52.8306 13.9097 52.8562 14.3647 52.8189 14.836H47.9749V14.164H52.0979L51.7759 14.374C51.7899 14.0987 51.7736 13.8233 51.7269 13.548C51.6849 13.2727 51.6032 13.0207 51.4819 12.792C51.3606 12.5587 51.1902 12.372 50.9709 12.232C50.7516 12.092 50.4716 12.022 50.1309 12.022C49.7016 12.022 49.3422 12.1317 49.0529 12.351C48.7636 12.5703 48.5466 12.8597 48.4019 13.219C48.2572 13.5737 48.1849 13.9587 48.1849 14.374V14.822C48.1849 15.2887 48.2549 15.7063 48.3949 16.075C48.5396 16.4437 48.7542 16.7353 49.0389 16.95C49.3236 17.1647 49.6829 17.272 50.1169 17.272C50.5509 17.272 50.9079 17.167 51.1879 16.957C51.4679 16.747 51.6382 16.4367 51.6989 16.026H52.8329C52.7629 16.4693 52.6042 16.852 52.3569 17.174C52.1096 17.4913 51.7946 17.7363 51.4119 17.909C51.0292 18.0817 50.5976 18.168 50.1169 18.168Z" fill="#0F7173"/>
<path d="M17.818 28.696H19.834L23.722 36.508H23.578L27.466 28.696H29.428V40H28.006V30.154H28.258L24.118 38.578H23.182L19.06 30.208H19.222V40H17.818V28.696ZM33.8502 29.362C33.5622 29.362 33.3342 29.281 33.1662 29.119C32.9982 28.951 32.9142 28.732 32.9142 28.462C32.9142 28.198 32.9982 27.988 33.1662 27.832C33.3342 27.676 33.5622 27.598 33.8502 27.598C34.1382 27.598 34.3662 27.676 34.5342 27.832C34.7022 27.988 34.7862 28.198 34.7862 28.462C34.7862 28.732 34.7022 28.951 34.5342 29.119C34.3662 29.281 34.1382 29.362 33.8502 29.362ZM33.1482 40V31.378H34.5522V40H33.1482ZM41.4436 40.216C40.7536 40.216 40.1086 40.03 39.5086 39.658C38.9146 39.286 38.4346 38.761 38.0686 38.083C37.7026 37.405 37.5196 36.604 37.5196 35.68C37.5196 34.732 37.7026 33.922 38.0686 33.25C38.4346 32.578 38.9146 32.065 39.5086 31.711C40.1086 31.357 40.7536 31.18 41.4436 31.18C41.9296 31.18 42.3646 31.255 42.7486 31.405C43.1386 31.549 43.4776 31.75 43.7656 32.008C44.0536 32.266 44.2906 32.56 44.4766 32.89C44.6686 33.214 44.8096 33.556 44.8996 33.916L43.4596 34.042C43.3096 33.544 43.0576 33.151 42.7036 32.863C42.3556 32.569 41.9296 32.422 41.4256 32.422C40.9996 32.422 40.5976 32.545 40.2196 32.791C39.8476 33.031 39.5446 33.394 39.3106 33.88C39.0766 34.36 38.9596 34.96 38.9596 35.68C38.9596 36.346 39.0646 36.925 39.2746 37.417C39.4906 37.903 39.7846 38.281 40.1566 38.551C40.5286 38.821 40.9516 38.956 41.4256 38.956C42.0916 38.956 42.5956 38.794 42.9376 38.47C43.2856 38.14 43.4596 37.684 43.4596 37.102H44.8996C44.8996 37.702 44.7586 38.236 44.4766 38.704C44.1946 39.172 43.7926 39.541 43.2706 39.811C42.7546 40.081 42.1456 40.216 41.4436 40.216ZM53.8208 40V34.942C53.8208 34.12 53.6228 33.496 53.2268 33.07C52.8368 32.638 52.3028 32.422 51.6248 32.422C51.1088 32.422 50.6618 32.563 50.2838 32.845C49.9058 33.127 49.6148 33.532 49.4108 34.06C49.2068 34.582 49.1048 35.206 49.1048 35.932H48.5648C48.5648 34.93 48.6968 34.075 48.9608 33.367C49.2248 32.659 49.6088 32.119 50.1128 31.747C50.6228 31.369 51.2408 31.18 51.9668 31.18C52.6448 31.18 53.2238 31.333 53.7038 31.639C54.1898 31.939 54.5618 32.371 54.8198 32.935C55.0778 33.499 55.2068 34.168 55.2068 34.942V40H53.8208ZM47.7008 40V27.724H49.1048V40H47.7008ZM61.5521 40.216C60.8081 40.216 60.1421 40.027 59.5541 39.649C58.9721 39.265 58.5101 38.734 58.1681 38.056C57.8321 37.378 57.6641 36.598 57.6641 35.716C57.6641 34.774 57.8321 33.964 58.1681 33.286C58.5041 32.608 58.9631 32.089 59.5451 31.729C60.1331 31.363 60.8021 31.18 61.5521 31.18C62.2061 31.18 62.7641 31.312 63.2261 31.576C63.6881 31.84 64.0601 32.197 64.3421 32.647C64.6241 33.097 64.8191 33.607 64.9271 34.177C65.0411 34.741 65.0741 35.326 65.0261 35.932H58.7981V35.068H64.0991L63.6851 35.338C63.7031 34.984 63.6821 34.63 63.6221 34.276C63.5681 33.922 63.4631 33.598 63.3071 33.304C63.1511 33.004 62.9321 32.764 62.6501 32.584C62.3681 32.404 62.0081 32.314 61.5701 32.314C61.0181 32.314 60.5561 32.455 60.1841 32.737C59.8121 33.019 59.5331 33.391 59.3471 33.853C59.1611 34.309 59.0681 34.804 59.0681 35.338V35.914C59.0681 36.514 59.1581 37.051 59.3381 37.525C59.5241 37.999 59.8001 38.374 60.1661 38.65C60.5321 38.926 60.9941 39.064 61.5521 39.064C62.1101 39.064 62.5691 38.929 62.9291 38.659C63.2891 38.389 63.5081 37.99 63.5861 37.462H65.0441C64.9541 38.032 64.7501 38.524 64.4321 38.938C64.1141 39.346 63.7091 39.661 63.2171 39.883C62.7251 40.105 62.1701 40.216 61.5521 40.216ZM67.8102 40V27.724H69.2142V40H67.8102ZM72.8551 40V27.724H74.2591V40H72.8551ZM80.888 40.216C80.144 40.216 79.478 40.027 78.89 39.649C78.308 39.265 77.846 38.734 77.504 38.056C77.168 37.378 77 36.598 77 35.716C77 34.774 77.168 33.964 77.504 33.286C77.84 32.608 78.299 32.089 78.881 31.729C79.469 31.363 80.138 31.18 80.888 31.18C81.542 31.18 82.1 31.312 82.562 31.576C83.024 31.84 83.396 32.197 83.678 32.647C83.96 33.097 84.155 33.607 84.263 34.177C84.377 34.741 84.41 35.326 84.362 35.932H78.134V35.068H83.435L83.021 35.338C83.039 34.984 83.018 34.63 82.958 34.276C82.904 33.922 82.799 33.598 82.643 33.304C82.487 33.004 82.268 32.764 81.986 32.584C81.704 32.404 81.344 32.314 80.906 32.314C80.354 32.314 79.892 32.455 79.52 32.737C79.148 33.019 78.869 33.391 78.683 33.853C78.497 34.309 78.404 34.804 78.404 35.338V35.914C78.404 36.514 78.494 37.051 78.674 37.525C78.86 37.999 79.136 38.374 79.502 38.65C79.868 38.926 80.33 39.064 80.888 39.064C81.446 39.064 81.905 38.929 82.265 38.659C82.625 38.389 82.844 37.99 82.922 37.462H84.38C84.29 38.032 84.086 38.524 83.768 38.938C83.45 39.346 83.045 39.661 82.553 39.883C82.061 40.105 81.506 40.216 80.888 40.216ZM95.0356 40.216C94.2796 40.216 93.5866 40.081 92.9566 39.811C92.3266 39.535 91.8196 39.13 91.4356 38.596C91.0516 38.062 90.8536 37.402 90.8416 36.616H92.2096C92.2096 37.144 92.3386 37.579 92.5966 37.921C92.8546 38.257 93.1966 38.509 93.6226 38.677C94.0486 38.839 94.5136 38.92 95.0176 38.92C95.5636 38.92 96.0376 38.833 96.4396 38.659C96.8416 38.485 97.1506 38.257 97.3666 37.975C97.5886 37.687 97.6996 37.372 97.6996 37.03C97.6996 36.55 97.5526 36.163 97.2586 35.869C96.9646 35.569 96.5296 35.326 95.9536 35.14L93.9556 34.438C93.0196 34.102 92.3116 33.718 91.8316 33.286C91.3516 32.854 91.1116 32.248 91.1116 31.468C91.1116 30.592 91.4476 29.878 92.1196 29.326C92.7976 28.774 93.7576 28.498 94.9996 28.498C96.1516 28.498 97.0516 28.765 97.6996 29.299C98.3476 29.827 98.7196 30.538 98.8156 31.432H97.4296C97.3396 30.91 97.0936 30.505 96.6916 30.217C96.2956 29.923 95.7316 29.776 94.9996 29.776C94.2556 29.776 93.6766 29.941 93.2626 30.271C92.8486 30.601 92.6416 31.018 92.6416 31.522C92.6416 31.936 92.7706 32.266 93.0286 32.512C93.2926 32.752 93.7036 32.968 94.2616 33.16L96.6016 33.97C97.4116 34.24 98.0506 34.618 98.5186 35.104C98.9926 35.59 99.2296 36.22 99.2296 36.994C99.2296 37.594 99.0676 38.137 98.7436 38.623C98.4256 39.109 97.9546 39.496 97.3306 39.784C96.7066 40.072 95.9416 40.216 95.0356 40.216ZM114.394 40V34.942C114.394 34.12 114.196 33.496 113.8 33.07C113.41 32.638 112.882 32.422 112.216 32.422C111.436 32.422 110.839 32.725 110.425 33.331C110.011 33.931 109.804 34.762 109.804 35.824H109.156C109.156 35.05 109.231 34.372 109.381 33.79C109.537 33.208 109.762 32.725 110.056 32.341C110.35 31.951 110.707 31.66 111.127 31.468C111.547 31.276 112.024 31.18 112.558 31.18C113.236 31.18 113.815 31.333 114.295 31.639C114.781 31.939 115.153 32.371 115.411 32.935C115.669 33.499 115.798 34.168 115.798 34.942V40H114.394ZM102.298 40V31.396H103.504L103.666 33.124C103.936 32.5 104.314 32.02 104.8 31.684C105.292 31.348 105.88 31.18 106.564 31.18C107.242 31.18 107.821 31.333 108.301 31.639C108.787 31.939 109.159 32.371 109.417 32.935C109.675 33.499 109.804 34.168 109.804 34.942V40H108.418V34.942C108.418 34.12 108.22 33.496 107.824 33.07C107.434 32.638 106.9 32.422 106.222 32.422C105.706 32.422 105.259 32.563 104.881 32.845C104.503 33.127 104.212 33.532 104.008 34.06C103.804 34.582 103.702 35.206 103.702 35.932V40H102.298ZM119.93 29.362C119.642 29.362 119.414 29.281 119.246 29.119C119.078 28.951 118.994 28.732 118.994 28.462C118.994 28.198 119.078 27.988 119.246 27.832C119.414 27.676 119.642 27.598 119.93 27.598C120.218 27.598 120.446 27.676 120.614 27.832C120.782 27.988 120.866 28.198 120.866 28.462C120.866 28.732 120.782 28.951 120.614 29.119C120.446 29.281 120.218 29.362 119.93 29.362ZM119.228 40V31.378H120.632V40H119.228ZM127.146 40.216C126.678 40.216 126.258 40.126 125.886 39.946C125.514 39.766 125.22 39.496 125.004 39.136C124.788 38.776 124.68 38.326 124.68 37.786V29.002H126.066V37.75C126.066 38.638 126.48 39.082 127.308 39.082C127.554 39.082 127.791 39.055 128.019 39.001C128.253 38.947 128.514 38.866 128.802 38.758L129 39.766C128.694 39.898 128.388 40.006 128.082 40.09C127.782 40.174 127.47 40.216 127.146 40.216ZM123.294 32.368V31.396H128.784V32.368H123.294ZM137.387 40V34.942C137.387 34.12 137.189 33.496 136.793 33.07C136.403 32.638 135.869 32.422 135.191 32.422C134.675 32.422 134.228 32.563 133.85 32.845C133.472 33.127 133.181 33.532 132.977 34.06C132.773 34.582 132.671 35.206 132.671 35.932H132.131C132.131 34.93 132.263 34.075 132.527 33.367C132.791 32.659 133.175 32.119 133.679 31.747C134.189 31.369 134.807 31.18 135.533 31.18C136.211 31.18 136.79 31.333 137.27 31.639C137.756 31.939 138.128 32.371 138.386 32.935C138.644 33.499 138.773 34.168 138.773 34.942V40H137.387ZM131.267 40V27.724H132.671V40H131.267Z" fill="black"/>
</svg>
