<svg width="370" height="48" viewBox="0 0 370 48" fill="none" xmlns="http://www.w3.org/2000/svg">
<rect x="0.5" y="0.5" width="369" height="47" fill="white" stroke="#0F7173"/>
<path d="M17.8 18.696H19.474L25.216 28.002H25.09V18.696H26.494V30H24.928L18.988 20.388H19.204V30H17.8V18.696ZM35.4507 30L35.2707 28.11V24.42C35.2707 23.646 35.1057 23.091 34.7757 22.755C34.4457 22.413 33.9507 22.242 33.2907 22.242C32.9187 22.242 32.5797 22.296 32.2737 22.404C31.9737 22.512 31.7337 22.68 31.5537 22.908C31.3797 23.13 31.2927 23.418 31.2927 23.772H29.7267C29.7267 23.148 29.8797 22.647 30.1857 22.269C30.4917 21.885 30.9117 21.609 31.4457 21.441C31.9857 21.267 32.6007 21.18 33.2907 21.18C33.9507 21.18 34.5357 21.291 35.0457 21.513C35.5557 21.735 35.9547 22.089 36.2427 22.575C36.5307 23.055 36.6747 23.682 36.6747 24.456V30H35.4507ZM32.5167 30.216C31.8087 30.216 31.2237 30.09 30.7617 29.838C30.2997 29.586 29.9547 29.259 29.7267 28.857C29.4987 28.455 29.3847 28.032 29.3847 27.588C29.3847 27.006 29.5287 26.532 29.8167 26.166C30.1107 25.8 30.5097 25.533 31.0137 25.365C31.5177 25.191 32.0847 25.104 32.7147 25.104C33.1647 25.104 33.6147 25.149 34.0647 25.239C34.5207 25.329 34.9647 25.452 35.3967 25.608V26.49C35.0367 26.346 34.6287 26.232 34.1727 26.148C33.7227 26.064 33.3087 26.022 32.9307 26.022C32.3547 26.022 31.8687 26.142 31.4727 26.382C31.0767 26.616 30.8787 27.018 30.8787 27.588C30.8787 28.008 31.0287 28.368 31.3287 28.668C31.6347 28.968 32.1207 29.118 32.7867 29.118C33.2547 29.118 33.6747 29.01 34.0467 28.794C34.4247 28.572 34.7217 28.296 34.9377 27.966C35.1597 27.636 35.2707 27.306 35.2707 26.976H35.6127C35.6127 27.552 35.4867 28.086 35.2347 28.578C34.9887 29.07 34.6347 29.466 34.1727 29.766C33.7107 30.066 33.1587 30.216 32.5167 30.216ZM52.1328 30V24.942C52.1328 24.12 51.9348 23.496 51.5388 23.07C51.1488 22.638 50.6208 22.422 49.9548 22.422C49.1748 22.422 48.5778 22.725 48.1638 23.331C47.7498 23.931 47.5428 24.762 47.5428 25.824H46.8948C46.8948 25.05 46.9698 24.372 47.1198 23.79C47.2758 23.208 47.5008 22.725 47.7948 22.341C48.0888 21.951 48.4458 21.66 48.8658 21.468C49.2858 21.276 49.7628 21.18 50.2968 21.18C50.9748 21.18 51.5538 21.333 52.0338 21.639C52.5198 21.939 52.8918 22.371 53.1498 22.935C53.4078 23.499 53.5368 24.168 53.5368 24.942V30H52.1328ZM40.0368 30V21.396H41.2428L41.4048 23.124C41.6748 22.5 42.0528 22.02 42.5388 21.684C43.0308 21.348 43.6188 21.18 44.3028 21.18C44.9808 21.18 45.5598 21.333 46.0398 21.639C46.5258 21.939 46.8978 22.371 47.1558 22.935C47.4138 23.499 47.5428 24.168 47.5428 24.942V30H46.1568V24.942C46.1568 24.12 45.9588 23.496 45.5628 23.07C45.1728 22.638 44.6388 22.422 43.9608 22.422C43.4448 22.422 42.9978 22.563 42.6198 22.845C42.2418 23.127 41.9508 23.532 41.7468 24.06C41.5428 24.582 41.4408 25.206 41.4408 25.932V30H40.0368ZM59.8646 30.216C59.1206 30.216 58.4546 30.027 57.8666 29.649C57.2846 29.265 56.8226 28.734 56.4806 28.056C56.1446 27.378 55.9766 26.598 55.9766 25.716C55.9766 24.774 56.1446 23.964 56.4806 23.286C56.8166 22.608 57.2756 22.089 57.8576 21.729C58.4456 21.363 59.1146 21.18 59.8646 21.18C60.5186 21.18 61.0766 21.312 61.5386 21.576C62.0006 21.84 62.3726 22.197 62.6546 22.647C62.9366 23.097 63.1316 23.607 63.2396 24.177C63.3536 24.741 63.3866 25.326 63.3386 25.932H57.1106V25.068H62.4116L61.9976 25.338C62.0156 24.984 61.9946 24.63 61.9346 24.276C61.8806 23.922 61.7756 23.598 61.6196 23.304C61.4636 23.004 61.2446 22.764 60.9626 22.584C60.6806 22.404 60.3206 22.314 59.8826 22.314C59.3306 22.314 58.8686 22.455 58.4966 22.737C58.1246 23.019 57.8456 23.391 57.6596 23.853C57.4736 24.309 57.3806 24.804 57.3806 25.338V25.914C57.3806 26.514 57.4706 27.051 57.6506 27.525C57.8366 27.999 58.1126 28.374 58.4786 28.65C58.8446 28.926 59.3066 29.064 59.8646 29.064C60.4226 29.064 60.8816 28.929 61.2416 28.659C61.6016 28.389 61.8206 27.99 61.8986 27.462H63.3566C63.2666 28.032 63.0626 28.524 62.7446 28.938C62.4266 29.346 62.0216 29.661 61.5296 29.883C61.0376 30.105 60.4826 30.216 59.8646 30.216Z" fill="black" fill-opacity="0.6"/>
</svg>
