<svg width="370" height="48" viewBox="0 0 370 48" fill="none" xmlns="http://www.w3.org/2000/svg">
<rect x="0.5" y="0.5" width="369" height="47" fill="white" stroke="#0F7173"/>
<path d="M17.782 30V18.696H21.418C22.66 18.696 23.608 19.011 24.262 19.641C24.922 20.265 25.252 21.114 25.252 22.188C25.252 23.25 24.922 24.093 24.262 24.717C23.608 25.335 22.66 25.644 21.418 25.644H19.204V30H17.782ZM19.204 24.42H21.418C22.204 24.42 22.798 24.219 23.2 23.817C23.608 23.415 23.812 22.872 23.812 22.188C23.812 21.492 23.608 20.937 23.2 20.523C22.798 20.109 22.204 19.902 21.418 19.902H19.204V24.42ZM33.9048 30V24.942C33.9048 24.12 33.7068 23.496 33.3108 23.07C32.9208 22.638 32.3868 22.422 31.7088 22.422C31.1928 22.422 30.7458 22.563 30.3678 22.845C29.9898 23.127 29.6988 23.532 29.4948 24.06C29.2908 24.582 29.1888 25.206 29.1888 25.932H28.6488C28.6488 24.93 28.7808 24.075 29.0448 23.367C29.3088 22.659 29.6928 22.119 30.1968 21.747C30.7068 21.369 31.3248 21.18 32.0508 21.18C32.7288 21.18 33.3078 21.333 33.7878 21.639C34.2738 21.939 34.6458 22.371 34.9038 22.935C35.1618 23.499 35.2908 24.168 35.2908 24.942V30H33.9048ZM27.7848 30V17.724H29.1888V30H27.7848ZM41.7621 30.216C40.9881 30.216 40.2981 30.045 39.6921 29.703C39.0921 29.361 38.6181 28.854 38.2701 28.182C37.9221 27.51 37.7481 26.682 37.7481 25.698C37.7481 24.708 37.9221 23.88 38.2701 23.214C38.6181 22.542 39.0921 22.035 39.6921 21.693C40.2981 21.351 40.9881 21.18 41.7621 21.18C42.5301 21.18 43.2141 21.351 43.8141 21.693C44.4201 22.035 44.8941 22.542 45.2361 23.214C45.5841 23.88 45.7581 24.708 45.7581 25.698C45.7581 26.682 45.5841 27.51 45.2361 28.182C44.8941 28.854 44.4201 29.361 43.8141 29.703C43.2141 30.045 42.5301 30.216 41.7621 30.216ZM41.7261 28.992C42.2841 28.992 42.7581 28.86 43.1481 28.596C43.5381 28.326 43.8321 27.945 44.0301 27.453C44.2341 26.961 44.3361 26.376 44.3361 25.698C44.3361 24.672 44.1231 23.865 43.6971 23.277C43.2711 22.683 42.6381 22.386 41.7981 22.386C41.2341 22.386 40.7571 22.521 40.3671 22.791C39.9831 23.055 39.6891 23.436 39.4851 23.934C39.2871 24.426 39.1881 25.014 39.1881 25.698C39.1881 26.712 39.4011 27.516 39.8271 28.11C40.2591 28.698 40.8921 28.992 41.7261 28.992ZM54.6118 30V24.942C54.6118 24.12 54.4138 23.496 54.0178 23.07C53.6278 22.638 53.0938 22.422 52.4158 22.422C51.8998 22.422 51.4528 22.563 51.0748 22.845C50.6968 23.127 50.4058 23.532 50.2018 24.06C49.9978 24.582 49.8958 25.206 49.8958 25.932H49.3558C49.3558 24.93 49.4878 24.075 49.7518 23.367C50.0158 22.659 50.3998 22.119 50.9038 21.747C51.4138 21.369 52.0318 21.18 52.7578 21.18C53.4358 21.18 54.0148 21.333 54.4948 21.639C54.9808 21.939 55.3528 22.371 55.6108 22.935C55.8688 23.499 55.9978 24.168 55.9978 24.942V30H54.6118ZM48.4918 30V21.396H49.6978L49.8958 23.376V30H48.4918ZM62.3431 30.216C61.5991 30.216 60.9331 30.027 60.3451 29.649C59.7631 29.265 59.3011 28.734 58.9591 28.056C58.6231 27.378 58.4551 26.598 58.4551 25.716C58.4551 24.774 58.6231 23.964 58.9591 23.286C59.2951 22.608 59.7541 22.089 60.3361 21.729C60.9241 21.363 61.5931 21.18 62.3431 21.18C62.9971 21.18 63.5551 21.312 64.0171 21.576C64.4791 21.84 64.8511 22.197 65.1331 22.647C65.4151 23.097 65.6101 23.607 65.7181 24.177C65.8321 24.741 65.8651 25.326 65.8171 25.932H59.5891V25.068H64.8901L64.4761 25.338C64.4941 24.984 64.4731 24.63 64.4131 24.276C64.3591 23.922 64.2541 23.598 64.0981 23.304C63.9421 23.004 63.7231 22.764 63.4411 22.584C63.1591 22.404 62.7991 22.314 62.3611 22.314C61.8091 22.314 61.3471 22.455 60.9751 22.737C60.6031 23.019 60.3241 23.391 60.1381 23.853C59.9521 24.309 59.8591 24.804 59.8591 25.338V25.914C59.8591 26.514 59.9491 27.051 60.1291 27.525C60.3151 27.999 60.5911 28.374 60.9571 28.65C61.3231 28.926 61.7851 29.064 62.3431 29.064C62.9011 29.064 63.3601 28.929 63.7201 28.659C64.0801 28.389 64.2991 27.99 64.3771 27.462H65.8351C65.7451 28.032 65.5411 28.524 65.2231 28.938C64.9051 29.346 64.5001 29.661 64.0081 29.883C63.5161 30.105 62.9611 30.216 62.3431 30.216ZM72.8547 18.696H74.5287L80.2707 28.002H80.1447V18.696H81.5487V30H79.9827L74.0427 20.388H74.2587V30H72.8547V18.696ZM91.0274 21.378H92.4314V30H91.0274V21.378ZM84.9254 21.378H86.3294V26.742C86.3294 27.462 86.5034 28.008 86.8514 28.38C87.2054 28.752 87.7094 28.938 88.3634 28.938C88.9034 28.938 89.3714 28.794 89.7674 28.506C90.1694 28.218 90.4784 27.822 90.6944 27.318C90.9164 26.808 91.0274 26.226 91.0274 25.572H91.5494C91.5494 26.538 91.4084 27.363 91.1264 28.047C90.8504 28.731 90.4574 29.256 89.9474 29.622C89.4434 29.982 88.8494 30.162 88.1654 30.162C87.5174 30.162 86.9504 30.042 86.4644 29.802C85.9784 29.562 85.6004 29.199 85.3304 28.713C85.0604 28.221 84.9254 27.6 84.9254 26.85V21.378ZM108.172 30V24.942C108.172 24.12 107.974 23.496 107.578 23.07C107.188 22.638 106.66 22.422 105.994 22.422C105.214 22.422 104.617 22.725 104.203 23.331C103.789 23.931 103.582 24.762 103.582 25.824H102.934C102.934 25.05 103.009 24.372 103.159 23.79C103.315 23.208 103.54 22.725 103.834 22.341C104.128 21.951 104.485 21.66 104.905 21.468C105.325 21.276 105.802 21.18 106.336 21.18C107.014 21.18 107.593 21.333 108.073 21.639C108.559 21.939 108.931 22.371 109.189 22.935C109.447 23.499 109.576 24.168 109.576 24.942V30H108.172ZM96.0758 30V21.396H97.2818L97.4438 23.124C97.7138 22.5 98.0918 22.02 98.5778 21.684C99.0698 21.348 99.6578 21.18 100.342 21.18C101.02 21.18 101.599 21.333 102.079 21.639C102.565 21.939 102.937 22.371 103.195 22.935C103.453 23.499 103.582 24.168 103.582 24.942V30H102.196V24.942C102.196 24.12 101.998 23.496 101.602 23.07C101.212 22.638 100.678 22.422 99.9998 22.422C99.4838 22.422 99.0368 22.563 98.6588 22.845C98.2808 23.127 97.9898 23.532 97.7858 24.06C97.5818 24.582 97.4798 25.206 97.4798 25.932V30H96.0758ZM116.858 30.216C116.282 30.216 115.76 30.066 115.292 29.766C114.83 29.466 114.461 29.028 114.185 28.452C113.915 27.87 113.78 27.162 113.78 26.328H114.32C114.32 26.886 114.434 27.363 114.662 27.759C114.896 28.149 115.196 28.446 115.562 28.65C115.928 28.854 116.312 28.956 116.714 28.956C117.176 28.956 117.599 28.824 117.983 28.56C118.367 28.296 118.673 27.918 118.901 27.426C119.135 26.934 119.252 26.346 119.252 25.662C119.252 24.99 119.138 24.414 118.91 23.934C118.682 23.448 118.373 23.076 117.983 22.818C117.599 22.554 117.17 22.422 116.696 22.422C116.288 22.422 115.901 22.524 115.535 22.728C115.175 22.926 114.881 23.22 114.653 23.61C114.431 24 114.32 24.48 114.32 25.05H113.78C113.78 24.234 113.912 23.538 114.176 22.962C114.446 22.386 114.818 21.945 115.292 21.639C115.766 21.333 116.318 21.18 116.948 21.18C117.626 21.18 118.247 21.363 118.811 21.729C119.381 22.089 119.837 22.605 120.179 23.277C120.521 23.949 120.692 24.744 120.692 25.662C120.692 26.586 120.518 27.39 120.17 28.074C119.822 28.752 119.357 29.28 118.775 29.658C118.193 30.03 117.554 30.216 116.858 30.216ZM112.916 30V17.724H114.32V27.984L113.906 30H112.916ZM126.574 30.216C125.83 30.216 125.164 30.027 124.576 29.649C123.994 29.265 123.532 28.734 123.19 28.056C122.854 27.378 122.686 26.598 122.686 25.716C122.686 24.774 122.854 23.964 123.19 23.286C123.526 22.608 123.985 22.089 124.567 21.729C125.155 21.363 125.824 21.18 126.574 21.18C127.228 21.18 127.786 21.312 128.248 21.576C128.71 21.84 129.082 22.197 129.364 22.647C129.646 23.097 129.841 23.607 129.949 24.177C130.063 24.741 130.096 25.326 130.048 25.932H123.82V25.068H129.121L128.707 25.338C128.725 24.984 128.704 24.63 128.644 24.276C128.59 23.922 128.485 23.598 128.329 23.304C128.173 23.004 127.954 22.764 127.672 22.584C127.39 22.404 127.03 22.314 126.592 22.314C126.04 22.314 125.578 22.455 125.206 22.737C124.834 23.019 124.555 23.391 124.369 23.853C124.183 24.309 124.09 24.804 124.09 25.338V25.914C124.09 26.514 124.18 27.051 124.36 27.525C124.546 27.999 124.822 28.374 125.188 28.65C125.554 28.926 126.016 29.064 126.574 29.064C127.132 29.064 127.591 28.929 127.951 28.659C128.311 28.389 128.53 27.99 128.608 27.462H130.066C129.976 28.032 129.772 28.524 129.454 28.938C129.136 29.346 128.731 29.661 128.239 29.883C127.747 30.105 127.192 30.216 126.574 30.216ZM132.832 30V21.378H134.236V30H132.832ZM133.804 26.112C133.804 25.02 133.909 24.114 134.119 23.394C134.329 22.668 134.635 22.128 135.037 21.774C135.445 21.414 135.94 21.234 136.522 21.234C136.714 21.234 136.888 21.249 137.044 21.279C137.206 21.303 137.368 21.342 137.53 21.396L137.44 22.782C137.272 22.728 137.089 22.683 136.891 22.647C136.693 22.605 136.516 22.584 136.36 22.584C135.85 22.584 135.439 22.731 135.127 23.025C134.815 23.313 134.587 23.721 134.443 24.249C134.305 24.777 134.236 25.398 134.236 26.112H133.804Z" fill="black" fill-opacity="0.6"/>
</svg>
