<svg width="544" height="48" viewBox="0 0 544 48" fill="none" xmlns="http://www.w3.org/2000/svg">
<rect x="0.5" y="0.5" width="543" height="47" fill="white" stroke="#0F7173"/>
<path d="M48.832 30.192C48.16 30.192 47.544 30.072 46.984 29.832C46.424 29.5867 45.9733 29.2267 45.632 28.752C45.2907 28.2773 45.1147 27.6907 45.104 26.992H46.32C46.32 27.4613 46.4347 27.848 46.664 28.152C46.8933 28.4507 47.1973 28.6747 47.576 28.824C47.9547 28.968 48.368 29.04 48.816 29.04C49.3013 29.04 49.7227 28.9627 50.08 28.808C50.4373 28.6533 50.712 28.4507 50.904 28.2C51.1013 27.944 51.2 27.664 51.2 27.36C51.2 26.9333 51.0693 26.5893 50.808 26.328C50.5467 26.0613 50.16 25.8453 49.648 25.68L47.872 25.056C47.04 24.7573 46.4107 24.416 45.984 24.032C45.5573 23.648 45.344 23.1093 45.344 22.416C45.344 21.6373 45.6427 21.0027 46.24 20.512C46.8427 20.0213 47.696 19.776 48.8 19.776C49.824 19.776 50.624 20.0133 51.2 20.488C51.776 20.9573 52.1067 21.5893 52.192 22.384H50.96C50.88 21.92 50.6613 21.56 50.304 21.304C49.952 21.0427 49.4507 20.912 48.8 20.912C48.1387 20.912 47.624 21.0587 47.256 21.352C46.888 21.6453 46.704 22.016 46.704 22.464C46.704 22.832 46.8187 23.1253 47.048 23.344C47.2827 23.5573 47.648 23.7493 48.144 23.92L50.224 24.64C50.944 24.88 51.512 25.216 51.928 25.648C52.3493 26.08 52.56 26.64 52.56 27.328C52.56 27.8613 52.416 28.344 52.128 28.776C51.8453 29.208 51.4267 29.552 50.872 29.808C50.3173 30.064 49.6373 30.192 48.832 30.192ZM57.9439 30.192C57.2825 30.192 56.6905 30.024 56.1679 29.688C55.6505 29.3467 55.2399 28.8747 54.9359 28.272C54.6372 27.6693 54.4879 26.976 54.4879 26.192C54.4879 25.3547 54.6372 24.6347 54.9359 24.032C55.2345 23.4293 55.6425 22.968 56.1599 22.648C56.6825 22.3227 57.2772 22.16 57.9439 22.16C58.5252 22.16 59.0212 22.2773 59.4319 22.512C59.8425 22.7467 60.1732 23.064 60.4239 23.464C60.6745 23.864 60.8479 24.3173 60.9439 24.824C61.0452 25.3253 61.0745 25.8453 61.0319 26.384H55.4959V25.616H60.2079L59.8399 25.856C59.8559 25.5413 59.8372 25.2267 59.7839 24.912C59.7359 24.5973 59.6425 24.3093 59.5039 24.048C59.3652 23.7813 59.1705 23.568 58.9199 23.408C58.6692 23.248 58.3492 23.168 57.9599 23.168C57.4692 23.168 57.0585 23.2933 56.7279 23.544C56.3972 23.7947 56.1492 24.1253 55.9839 24.536C55.8185 24.9413 55.7359 25.3813 55.7359 25.856V26.368C55.7359 26.9013 55.8159 27.3787 55.9759 27.8C56.1412 28.2213 56.3865 28.5547 56.7119 28.8C57.0372 29.0453 57.4479 29.168 57.9439 29.168C58.4399 29.168 58.8479 29.048 59.1679 28.808C59.4879 28.568 59.6825 28.2133 59.7519 27.744H61.0479C60.9679 28.2507 60.7865 28.688 60.5039 29.056C60.2212 29.4187 59.8612 29.6987 59.4239 29.896C58.9865 30.0933 58.4932 30.192 57.9439 30.192ZM68.2426 30L68.0826 28.32V25.04C68.0826 24.352 67.936 23.8587 67.6426 23.56C67.3493 23.256 66.9093 23.104 66.3226 23.104C65.992 23.104 65.6906 23.152 65.4186 23.248C65.152 23.344 64.9386 23.4933 64.7786 23.696C64.624 23.8933 64.5466 24.1493 64.5466 24.464H63.1546C63.1546 23.9093 63.2906 23.464 63.5626 23.128C63.8346 22.7867 64.208 22.5413 64.6826 22.392C65.1626 22.2373 65.7093 22.16 66.3226 22.16C66.9093 22.16 67.4293 22.2587 67.8826 22.456C68.336 22.6533 68.6906 22.968 68.9466 23.4C69.2026 23.8267 69.3306 24.384 69.3306 25.072V30H68.2426ZM65.6346 30.192C65.0053 30.192 64.4853 30.08 64.0746 29.856C63.664 29.632 63.3573 29.3413 63.1546 28.984C62.952 28.6267 62.8506 28.2507 62.8506 27.856C62.8506 27.3387 62.9786 26.9173 63.2346 26.592C63.496 26.2667 63.8506 26.0293 64.2986 25.88C64.7466 25.7253 65.2506 25.648 65.8106 25.648C66.2106 25.648 66.6106 25.688 67.0106 25.768C67.416 25.848 67.8106 25.9573 68.1946 26.096V26.88C67.8746 26.752 67.512 26.6507 67.1066 26.576C66.7066 26.5013 66.3386 26.464 66.0026 26.464C65.4906 26.464 65.0586 26.5707 64.7066 26.784C64.3546 26.992 64.1786 27.3493 64.1786 27.856C64.1786 28.2293 64.312 28.5493 64.5786 28.816C64.8506 29.0827 65.2826 29.216 65.8746 29.216C66.2906 29.216 66.664 29.12 66.9946 28.928C67.3306 28.7307 67.5946 28.4853 67.7866 28.192C67.984 27.8987 68.0826 27.6053 68.0826 27.312H68.3866C68.3866 27.824 68.2746 28.2987 68.0506 28.736C67.832 29.1733 67.5173 29.5253 67.1066 29.792C66.696 30.0587 66.2053 30.192 65.6346 30.192ZM72.3191 30V22.336H73.5671V30H72.3191ZM73.1831 26.544C73.1831 25.5733 73.2765 24.768 73.4631 24.128C73.6498 23.4827 73.9218 23.0027 74.2791 22.688C74.6418 22.368 75.0818 22.208 75.5991 22.208C75.7698 22.208 75.9245 22.2213 76.0631 22.248C76.2071 22.2693 76.3511 22.304 76.4951 22.352L76.4151 23.584C76.2658 23.536 76.1031 23.496 75.9271 23.464C75.7511 23.4267 75.5938 23.408 75.4551 23.408C75.0018 23.408 74.6365 23.5387 74.3591 23.8C74.0818 24.056 73.8791 24.4187 73.7511 24.888C73.6285 25.3573 73.5671 25.9093 73.5671 26.544H73.1831ZM80.7884 30.192C80.175 30.192 79.6017 30.0267 79.0684 29.696C78.5404 29.3653 78.1137 28.8987 77.7884 28.296C77.463 27.6933 77.3004 26.9813 77.3004 26.16C77.3004 25.3173 77.463 24.5973 77.7884 24C78.1137 23.4027 78.5404 22.9467 79.0684 22.632C79.6017 22.3173 80.175 22.16 80.7884 22.16C81.2204 22.16 81.607 22.2267 81.9484 22.36C82.295 22.488 82.5964 22.6667 82.8524 22.896C83.1084 23.1253 83.319 23.3867 83.4844 23.68C83.655 23.968 83.7804 24.272 83.8604 24.592L82.5804 24.704C82.447 24.2613 82.223 23.912 81.9084 23.656C81.599 23.3947 81.2204 23.264 80.7724 23.264C80.3937 23.264 80.0364 23.3733 79.7004 23.592C79.3697 23.8053 79.1004 24.128 78.8924 24.56C78.6844 24.9867 78.5804 25.52 78.5804 26.16C78.5804 26.752 78.6737 27.2667 78.8604 27.704C79.0524 28.136 79.3137 28.472 79.6444 28.712C79.975 28.952 80.351 29.072 80.7724 29.072C81.3644 29.072 81.8124 28.928 82.1164 28.64C82.4257 28.3467 82.5804 27.9413 82.5804 27.424H83.8604C83.8604 27.9573 83.735 28.432 83.4844 28.848C83.2337 29.264 82.8764 29.592 82.4124 29.832C81.9537 30.072 81.4124 30.192 80.7884 30.192ZM91.7904 30V25.504C91.7904 24.7733 91.6144 24.2187 91.2624 23.84C90.9157 23.456 90.441 23.264 89.8384 23.264C89.3797 23.264 88.9824 23.3893 88.6464 23.64C88.3104 23.8907 88.0517 24.2507 87.8704 24.72C87.689 25.184 87.5984 25.7387 87.5984 26.384H87.1184C87.1184 25.4933 87.2357 24.7333 87.4704 24.104C87.705 23.4747 88.0464 22.9947 88.4944 22.664C88.9477 22.328 89.497 22.16 90.1424 22.16C90.745 22.16 91.2597 22.296 91.6864 22.568C92.1184 22.8347 92.449 23.2187 92.6784 23.72C92.9077 24.2213 93.0224 24.816 93.0224 25.504V30H91.7904ZM86.3504 30V19.088H87.5984V30H86.3504ZM102.156 30.192C101.74 30.192 101.366 30.112 101.036 29.952C100.705 29.792 100.444 29.552 100.252 29.232C100.06 28.912 99.9635 28.512 99.9635 28.032V20.224H101.196V28C101.196 28.7893 101.564 29.184 102.299 29.184C102.518 29.184 102.729 29.16 102.932 29.112C103.14 29.064 103.372 28.992 103.628 28.896L103.804 29.792C103.532 29.9093 103.26 30.0053 102.988 30.08C102.721 30.1547 102.444 30.192 102.156 30.192ZM98.7315 23.216V22.352H103.612V23.216H98.7315ZM108.475 30.192C107.814 30.192 107.222 30.024 106.699 29.688C106.182 29.3467 105.771 28.8747 105.467 28.272C105.168 27.6693 105.019 26.976 105.019 26.192C105.019 25.3547 105.168 24.6347 105.467 24.032C105.766 23.4293 106.174 22.968 106.691 22.648C107.214 22.3227 107.808 22.16 108.475 22.16C109.056 22.16 109.552 22.2773 109.963 22.512C110.374 22.7467 110.704 23.064 110.955 23.464C111.206 23.864 111.379 24.3173 111.475 24.824C111.576 25.3253 111.606 25.8453 111.563 26.384H106.027V25.616H110.739L110.371 25.856C110.387 25.5413 110.368 25.2267 110.315 24.912C110.267 24.5973 110.174 24.3093 110.035 24.048C109.896 23.7813 109.702 23.568 109.451 23.408C109.2 23.248 108.88 23.168 108.491 23.168C108 23.168 107.59 23.2933 107.259 23.544C106.928 23.7947 106.68 24.1253 106.515 24.536C106.35 24.9413 106.267 25.3813 106.267 25.856V26.368C106.267 26.9013 106.347 27.3787 106.507 27.8C106.672 28.2213 106.918 28.5547 107.243 28.8C107.568 29.0453 107.979 29.168 108.475 29.168C108.971 29.168 109.379 29.048 109.699 28.808C110.019 28.568 110.214 28.2133 110.283 27.744H111.579C111.499 28.2507 111.318 28.688 111.035 29.056C110.752 29.4187 110.392 29.6987 109.955 29.896C109.518 30.0933 109.024 30.192 108.475 30.192ZM124.79 30V25.504C124.79 24.7733 124.614 24.2187 124.262 23.84C123.915 23.456 123.446 23.264 122.854 23.264C122.161 23.264 121.63 23.5333 121.262 24.072C120.894 24.6053 120.71 25.344 120.71 26.288H120.134C120.134 25.6 120.201 24.9973 120.334 24.48C120.473 23.9627 120.673 23.5333 120.934 23.192C121.195 22.8453 121.513 22.5867 121.886 22.416C122.259 22.2453 122.683 22.16 123.158 22.16C123.761 22.16 124.275 22.296 124.702 22.568C125.134 22.8347 125.465 23.2187 125.694 23.72C125.923 24.2213 126.038 24.816 126.038 25.504V30H124.79ZM114.038 30V22.352H115.11L115.254 23.888C115.494 23.3333 115.83 22.9067 116.262 22.608C116.699 22.3093 117.222 22.16 117.83 22.16C118.433 22.16 118.947 22.296 119.374 22.568C119.806 22.8347 120.137 23.2187 120.366 23.72C120.595 24.2213 120.71 24.816 120.71 25.504V30H119.478V25.504C119.478 24.7733 119.302 24.2187 118.95 23.84C118.603 23.456 118.129 23.264 117.526 23.264C117.067 23.264 116.67 23.3893 116.334 23.64C115.998 23.8907 115.739 24.2507 115.558 24.72C115.377 25.184 115.286 25.7387 115.286 26.384V30H114.038ZM132.479 30.192C131.919 30.192 131.431 30.064 131.015 29.808C130.604 29.552 130.287 29.1787 130.063 28.688C129.839 28.192 129.727 27.5893 129.727 26.88H130.255C130.255 27.3547 130.353 27.7547 130.551 28.08C130.748 28.4053 131.004 28.6533 131.319 28.824C131.639 28.9893 131.977 29.072 132.335 29.072C132.719 29.072 133.087 28.9627 133.439 28.744C133.791 28.52 134.079 28.192 134.303 27.76C134.527 27.328 134.639 26.7947 134.639 26.16C134.639 25.552 134.535 25.032 134.327 24.6C134.124 24.168 133.849 23.8373 133.503 23.608C133.156 23.3787 132.772 23.264 132.351 23.264C131.988 23.264 131.647 23.352 131.327 23.528C131.007 23.704 130.748 23.9627 130.551 24.304C130.353 24.64 130.255 25.056 130.255 25.552H129.727C129.727 24.8107 129.849 24.1893 130.095 23.688C130.34 23.1813 130.673 22.8 131.095 22.544C131.516 22.288 131.988 22.16 132.511 22.16C133.108 22.16 133.665 22.32 134.183 22.64C134.7 22.96 135.119 23.4187 135.439 24.016C135.759 24.6133 135.919 25.328 135.919 26.16C135.919 27.0027 135.756 27.7253 135.431 28.328C135.111 28.9307 134.689 29.392 134.167 29.712C133.644 30.032 133.081 30.192 132.479 30.192ZM129.007 33.76V22.352H130.047L130.255 24.144V33.76H129.007ZM138.366 30V19.088H139.614V30H138.366ZM147.586 30L147.426 28.32V25.04C147.426 24.352 147.28 23.8587 146.986 23.56C146.693 23.256 146.253 23.104 145.666 23.104C145.336 23.104 145.034 23.152 144.762 23.248C144.496 23.344 144.282 23.4933 144.122 23.696C143.968 23.8933 143.89 24.1493 143.89 24.464H142.498C142.498 23.9093 142.634 23.464 142.906 23.128C143.178 22.7867 143.552 22.5413 144.026 22.392C144.506 22.2373 145.053 22.16 145.666 22.16C146.253 22.16 146.773 22.2587 147.226 22.456C147.68 22.6533 148.034 22.968 148.29 23.4C148.546 23.8267 148.674 24.384 148.674 25.072V30H147.586ZM144.978 30.192C144.349 30.192 143.829 30.08 143.418 29.856C143.008 29.632 142.701 29.3413 142.498 28.984C142.296 28.6267 142.194 28.2507 142.194 27.856C142.194 27.3387 142.322 26.9173 142.578 26.592C142.84 26.2667 143.194 26.0293 143.642 25.88C144.09 25.7253 144.594 25.648 145.154 25.648C145.554 25.648 145.954 25.688 146.354 25.768C146.76 25.848 147.154 25.9573 147.538 26.096V26.88C147.218 26.752 146.856 26.6507 146.45 26.576C146.05 26.5013 145.682 26.464 145.346 26.464C144.834 26.464 144.402 26.5707 144.05 26.784C143.698 26.992 143.522 27.3493 143.522 27.856C143.522 28.2293 143.656 28.5493 143.922 28.816C144.194 29.0827 144.626 29.216 145.218 29.216C145.634 29.216 146.008 29.12 146.338 28.928C146.674 28.7307 146.938 28.4853 147.13 28.192C147.328 27.8987 147.426 27.6053 147.426 27.312H147.73C147.73 27.824 147.618 28.2987 147.394 28.736C147.176 29.1733 146.861 29.5253 146.45 29.792C146.04 30.0587 145.549 30.192 144.978 30.192ZM154.015 30.192C153.599 30.192 153.226 30.112 152.895 29.952C152.564 29.792 152.303 29.552 152.111 29.232C151.919 28.912 151.823 28.512 151.823 28.032V20.224H153.055V28C153.055 28.7893 153.423 29.184 154.159 29.184C154.378 29.184 154.588 29.16 154.791 29.112C154.999 29.064 155.231 28.992 155.487 28.896L155.663 29.792C155.391 29.9093 155.119 30.0053 154.847 30.08C154.58 30.1547 154.303 30.192 154.015 30.192ZM150.591 23.216V22.352H155.471V23.216H150.591ZM160.335 30.192C159.673 30.192 159.081 30.024 158.559 29.688C158.041 29.3467 157.631 28.8747 157.327 28.272C157.028 27.6693 156.879 26.976 156.879 26.192C156.879 25.3547 157.028 24.6347 157.327 24.032C157.625 23.4293 158.033 22.968 158.551 22.648C159.073 22.3227 159.668 22.16 160.335 22.16C160.916 22.16 161.412 22.2773 161.823 22.512C162.233 22.7467 162.564 23.064 162.815 23.464C163.065 23.864 163.239 24.3173 163.335 24.824C163.436 25.3253 163.465 25.8453 163.423 26.384H157.887V25.616H162.599L162.231 25.856C162.247 25.5413 162.228 25.2267 162.175 24.912C162.127 24.5973 162.033 24.3093 161.895 24.048C161.756 23.7813 161.561 23.568 161.311 23.408C161.06 23.248 160.74 23.168 160.351 23.168C159.86 23.168 159.449 23.2933 159.119 23.544C158.788 23.7947 158.54 24.1253 158.375 24.536C158.209 24.9413 158.127 25.3813 158.127 25.856V26.368C158.127 26.9013 158.207 27.3787 158.367 27.8C158.532 28.2213 158.777 28.5547 159.103 28.8C159.428 29.0453 159.839 29.168 160.335 29.168C160.831 29.168 161.239 29.048 161.559 28.808C161.879 28.568 162.073 28.2133 162.143 27.744H163.439C163.359 28.2507 163.177 28.688 162.895 29.056C162.612 29.4187 162.252 29.6987 161.815 29.896C161.377 30.0933 160.884 30.192 160.335 30.192ZM168.649 30.192C167.908 30.192 167.289 30.088 166.793 29.88C166.297 29.6667 165.921 29.376 165.665 29.008C165.409 28.6347 165.273 28.208 165.257 27.728H166.457C166.484 28.2133 166.679 28.5787 167.041 28.824C167.409 29.064 167.908 29.184 168.537 29.184C168.868 29.184 169.172 29.1307 169.449 29.024C169.727 28.9173 169.948 28.7707 170.113 28.584C170.279 28.3973 170.361 28.1867 170.361 27.952C170.361 27.6533 170.252 27.4187 170.033 27.248C169.815 27.0773 169.465 26.928 168.985 26.8L167.497 26.32C166.852 26.1173 166.356 25.84 166.009 25.488C165.668 25.1307 165.497 24.704 165.497 24.208C165.497 23.5893 165.769 23.0933 166.313 22.72C166.857 22.3467 167.572 22.16 168.457 22.16C169.396 22.16 170.124 22.352 170.641 22.736C171.159 23.12 171.428 23.6 171.449 24.176H170.217C170.169 23.84 169.999 23.5867 169.705 23.416C169.412 23.24 168.996 23.152 168.457 23.152C167.94 23.152 167.535 23.2693 167.241 23.504C166.953 23.7333 166.809 23.9893 166.809 24.272C166.809 24.8 167.263 25.1893 168.169 25.44L169.689 25.952C170.345 26.1493 170.847 26.408 171.193 26.728C171.545 27.048 171.721 27.456 171.721 27.952C171.721 28.336 171.596 28.6987 171.345 29.04C171.095 29.3813 170.74 29.6587 170.281 29.872C169.823 30.0853 169.279 30.192 168.649 30.192Z" fill="black" fill-opacity="0.6"/>
</svg>
